<svg width="146" height="146" viewBox="0 0 146 146" fill="none" xmlns="http://www.w3.org/2000/svg">
<circle opacity="0.1" cx="73" cy="73" r="72.5" stroke="white"/>
<circle opacity="0.3" cx="73" cy="76" r="70" fill="black"/>
<path d="M44.8999 101.997C44.8523 102.009 44.8106 101.979 44.7749 101.908C44.7391 101.848 44.7391 101.806 44.7749 101.783C45.299 101.461 45.6742 100.973 45.9006 100.317C46.1269 99.6742 46.2341 98.8403 46.2222 97.8158V88.8099C46.2222 88.4526 46.1865 88.1905 46.115 88.0237C46.0435 87.8569 45.9125 87.7438 45.7219 87.6842C45.5313 87.6127 45.2394 87.577 44.8463 87.577C44.8106 87.577 44.7927 87.5412 44.7927 87.4698C44.7927 87.3983 44.8106 87.3626 44.8463 87.3626L45.704 87.3804C46.1805 87.4043 46.5736 87.4162 46.8834 87.4162C47.2288 87.4162 47.6636 87.4043 48.1878 87.3804L48.9919 87.3626C49.0276 87.3626 49.0455 87.3983 49.0455 87.4698C49.0455 87.5412 49.0276 87.577 48.9919 87.577C48.5988 87.577 48.3069 87.6127 48.1163 87.6842C47.9257 87.7557 47.7947 87.8808 47.7232 88.0594C47.6636 88.2262 47.6279 88.4883 47.616 88.8457V97.3333C47.616 98.2625 47.5266 99.013 47.348 99.5848C47.1693 100.169 46.8893 100.645 46.5081 101.014C46.1269 101.384 45.5909 101.711 44.8999 101.997Z" fill="white"/>
<path d="M53.0633 98.7807C52.42 98.7807 51.8601 98.6259 51.3836 98.3161C50.9191 98.0064 50.5617 97.5835 50.3115 97.0474C50.0614 96.5114 49.9363 95.9158 49.9363 95.2606C49.9363 94.522 50.0852 93.8608 50.383 93.2771C50.6927 92.6934 51.1156 92.2348 51.6517 91.9012C52.1877 91.5677 52.7953 91.4009 53.4743 91.4009C54.4273 91.4009 55.1897 91.7166 55.7615 92.348C56.3333 92.9674 56.6192 93.8072 56.6192 94.8675C56.6192 95.6775 56.4524 96.3803 56.1189 96.976C55.7972 97.5597 55.3624 98.0064 54.8145 98.3161C54.2784 98.6259 53.6947 98.7807 53.0633 98.7807ZM53.6172 98.334C54.1533 98.334 54.5822 98.0957 54.9038 97.6192C55.2373 97.1308 55.4041 96.4697 55.4041 95.6358C55.4041 94.9806 55.2969 94.3612 55.0825 93.7775C54.8681 93.1937 54.5762 92.7232 54.2069 92.3658C53.8376 92.0084 53.4207 91.8298 52.9561 91.8298C52.4319 91.8298 51.9971 92.0621 51.6517 92.5266C51.3181 92.9793 51.1514 93.6226 51.1514 94.4565C51.1514 95.1117 51.2586 95.7371 51.473 96.3327C51.6874 96.9283 51.9793 97.4108 52.3486 97.7801C52.7298 98.1493 53.1527 98.334 53.6172 98.334Z" fill="white"/>
<path d="M62.9749 91.4009C63.5824 91.4009 64.0709 91.6511 64.4401 92.1514C64.8213 92.6398 65.0119 93.2712 65.0119 94.0455C65.0119 95.0104 64.7796 95.8502 64.3151 96.565C63.8624 97.2797 63.2965 97.8277 62.6175 98.2089C61.9385 98.5782 61.2833 98.7628 60.652 98.7628C59.9372 98.7628 59.3654 98.6139 58.9366 98.3161C58.5196 98.0183 58.3171 97.6133 58.329 97.101L58.4362 87.6306C58.4601 87.0231 58.2695 86.7193 57.8644 86.7193C57.6381 86.7193 57.3462 86.8086 56.9889 86.9873H56.971C56.9114 86.9873 56.8757 86.9575 56.8638 86.898C56.84 86.8265 56.8519 86.7848 56.8995 86.7729L59.3654 85.5757H59.4011C59.4488 85.5757 59.4964 85.5936 59.5441 85.6293C59.5917 85.665 59.6156 85.6948 59.6156 85.7186L59.5798 94.5637C59.8419 93.6226 60.2767 92.8602 60.8843 92.2765C61.5037 91.6928 62.2006 91.4009 62.9749 91.4009ZM61.331 98.2983C61.7479 98.2983 62.1351 98.1493 62.4924 97.8515C62.8498 97.5537 63.1357 97.1249 63.3501 96.565C63.5646 96.0051 63.6658 95.3499 63.6539 94.5994C63.6658 93.9204 63.5527 93.3724 63.3144 92.9555C63.0881 92.5386 62.7307 92.3301 62.2423 92.3301C61.73 92.3301 61.2714 92.5147 60.8664 92.884C60.4733 93.2533 60.1576 93.7775 59.9193 94.4565C59.693 95.1236 59.5798 95.8919 59.5798 96.7615V96.8151C59.5798 97.244 59.7466 97.6014 60.0802 97.8873C60.4137 98.1613 60.8306 98.2983 61.331 98.2983Z" fill="white"/>
<path d="M70.5161 98.5306C70.4803 98.5306 70.4565 98.4948 70.4446 98.4233C70.4446 98.3519 70.4684 98.3161 70.5161 98.3161C70.9211 98.3161 71.213 98.2863 71.3917 98.2268C71.5823 98.1672 71.7133 98.054 71.7848 97.8873C71.8562 97.7086 71.892 97.4406 71.892 97.0832V88.8099C71.8801 88.4526 71.8384 88.1905 71.7669 88.0237C71.6954 87.8569 71.5644 87.7438 71.3738 87.6842C71.1951 87.6127 70.9092 87.577 70.5161 87.577C70.4803 87.577 70.4565 87.5412 70.4446 87.4698C70.4446 87.3983 70.4684 87.3626 70.5161 87.3626L71.338 87.3804C71.8146 87.4043 72.2077 87.4162 72.5174 87.4162C72.7914 87.4162 73.0237 87.4102 73.2143 87.3983C73.4168 87.3864 73.5836 87.3745 73.7146 87.3626C74.1315 87.3268 74.5306 87.309 74.9118 87.309C76.0673 87.309 77.0203 87.5591 77.7708 88.0594C78.5213 88.5598 78.8965 89.2924 78.8965 90.2573C78.8965 91.0435 78.6821 91.7106 78.2533 92.2586C77.8244 92.7947 77.2883 93.1937 76.6451 93.4558C76.0018 93.7179 75.3585 93.8489 74.7152 93.8489C74.3579 93.8489 74.0779 93.8191 73.8754 93.7596C73.8516 93.7596 73.8397 93.7238 73.8397 93.6524C73.8397 93.6166 73.8456 93.5749 73.8575 93.5273C73.8814 93.4796 73.9052 93.4618 73.929 93.4737C74.0839 93.5213 74.2745 93.5452 74.5008 93.5452C75.287 93.5452 75.9541 93.295 76.5021 92.7947C77.062 92.2943 77.342 91.5677 77.342 90.6147C77.342 90.0071 77.2109 89.477 76.9488 89.0244C76.6868 88.5598 76.3413 88.2084 75.9125 87.9701C75.4955 87.7319 75.0488 87.6127 74.5723 87.6127C74.1911 87.6127 73.9112 87.6425 73.7325 87.7021C73.5657 87.7497 73.4466 87.8569 73.3751 88.0237C73.3155 88.1905 73.2798 88.4645 73.2679 88.8457L73.2857 97.0832C73.2857 97.4406 73.3155 97.7086 73.3751 97.8873C73.4466 98.054 73.5716 98.1672 73.7503 98.2268C73.9409 98.2863 74.2328 98.3161 74.6259 98.3161C74.6616 98.3161 74.6795 98.3519 74.6795 98.4233C74.6795 98.4948 74.6616 98.5306 74.6259 98.5306C74.2685 98.5306 73.9886 98.5246 73.7861 98.5127L72.5531 98.4948L71.3559 98.5127C71.1534 98.5246 70.8735 98.5306 70.5161 98.5306Z" fill="white"/>
<path d="M82.8155 98.7807C82.1723 98.7807 81.6124 98.6259 81.1359 98.3161C80.6713 98.0064 80.3139 97.5835 80.0637 97.0474C79.8136 96.5114 79.6885 95.9158 79.6885 95.2606C79.6885 94.522 79.8374 93.8608 80.1352 93.2771C80.4449 92.6934 80.8678 92.2348 81.4039 91.9012C81.94 91.5677 82.5475 91.4009 83.2265 91.4009C84.1795 91.4009 84.9419 91.7166 85.5137 92.348C86.0855 92.9674 86.3714 93.8072 86.3714 94.8675C86.3714 95.6775 86.2046 96.3803 85.8711 96.976C85.5494 97.5597 85.1146 98.0064 84.5667 98.3161C84.0306 98.6259 83.4469 98.7807 82.8155 98.7807ZM83.3695 98.334C83.9055 98.334 84.3344 98.0957 84.656 97.6192C84.9896 97.1308 85.1563 96.4697 85.1563 95.6358C85.1563 94.9806 85.0491 94.3612 84.8347 93.7775C84.6203 93.1937 84.3284 92.7232 83.9591 92.3658C83.5898 92.0084 83.1729 91.8298 82.7083 91.8298C82.1842 91.8298 81.7494 92.0621 81.4039 92.5266C81.0703 92.9793 80.9036 93.6226 80.9036 94.4565C80.9036 95.1117 81.0108 95.7371 81.2252 96.3327C81.4396 96.9283 81.7315 97.4108 82.1008 97.7801C82.482 98.1493 82.9049 98.334 83.3695 98.334Z" fill="white"/>
<path d="M91.7622 91.4545C92.0481 91.4545 92.3221 91.5439 92.5842 91.7225C92.8582 91.9012 93.0011 92.1037 93.013 92.3301C93.013 92.5088 92.9415 92.6755 92.7986 92.8304C92.6556 92.9853 92.4948 93.0627 92.3161 93.0627C92.1851 93.0627 92.0779 93.0448 91.9945 93.0091C91.923 92.9614 91.8277 92.89 91.7086 92.7947C91.5537 92.6636 91.4108 92.5981 91.2797 92.5981C91.0177 92.5981 90.7675 92.9257 90.5293 93.5809C90.291 94.2361 90.0944 95.0223 89.9396 95.9396C89.7847 96.8568 89.7013 97.6669 89.6894 98.3697C89.6894 98.465 89.6299 98.5365 89.5107 98.5842C89.3916 98.6437 89.2129 98.6735 88.9747 98.6735C88.7364 98.6735 88.5875 98.6556 88.528 98.6199C88.4803 98.5961 88.4565 98.5484 88.4565 98.4769C88.4565 98.334 88.4624 98.2089 88.4743 98.1017L88.4922 97.2083L88.5101 93.6881C88.522 92.7113 88.3195 92.2229 87.9025 92.2229C87.7358 92.2229 87.5571 92.2824 87.3665 92.4016C87.1878 92.5207 87.0091 92.6875 86.8304 92.9019C86.8185 92.9138 86.8006 92.9198 86.7768 92.9198C86.7411 92.9198 86.7113 92.9019 86.6875 92.8661C86.6517 92.8304 86.6398 92.7947 86.6517 92.7589C86.9734 92.342 87.3069 92.0263 87.6524 91.8119C87.9978 91.5856 88.3314 91.4724 88.653 91.4724C89.0223 91.4724 89.2904 91.6272 89.4571 91.937C89.6358 92.2348 89.7252 92.7887 89.7252 93.5988L89.7073 95.6179C89.886 94.4148 90.1481 93.4201 90.4935 92.6339C90.839 91.8476 91.2619 91.4545 91.7622 91.4545Z" fill="white"/>
<path d="M99.3772 91.6511C99.4249 91.6511 99.4606 91.6689 99.4844 91.7047C99.5202 91.7404 99.5381 91.7762 99.5381 91.8119C99.5261 91.9668 99.4487 92.1395 99.3058 92.3301C99.1747 92.5207 99.0377 92.6041 98.8948 92.5802L98.5195 92.5266C97.4951 92.3718 96.6612 92.2824 96.0179 92.2586L96 96.6365C96 97.101 96.0953 97.4406 96.2859 97.655C96.4765 97.8694 96.7803 97.9766 97.1972 97.9766C97.7214 97.9766 98.2396 97.7741 98.7518 97.3691H98.7697C98.8173 97.3691 98.859 97.3929 98.8948 97.4406C98.9305 97.4763 98.9305 97.5001 98.8948 97.512C98.454 97.9528 98.0371 98.2685 97.644 98.4591C97.2509 98.6497 96.8518 98.745 96.4468 98.745C95.9583 98.745 95.5533 98.6199 95.2317 98.3697C94.922 98.1196 94.773 97.6967 94.785 97.101L94.8028 93.0627C94.8028 92.7649 94.779 92.5564 94.7313 92.4373C94.6956 92.3063 94.6182 92.2169 94.4991 92.1693C94.3799 92.1216 94.1834 92.0978 93.9094 92.0978C93.8736 92.0978 93.8558 92.0561 93.8558 91.9727C93.8558 91.8893 93.8677 91.8476 93.8915 91.8476C94.3918 91.8476 94.7909 91.7166 95.0887 91.4545C95.3985 91.1805 95.595 90.8351 95.6784 90.4181C95.6784 90.3824 95.726 90.3645 95.8213 90.3645C95.869 90.3645 95.9107 90.3764 95.9464 90.4003C95.9941 90.4122 96.0179 90.4241 96.0179 90.436V91.8119C96.2085 91.8119 97.0245 91.7762 98.4659 91.7047L99.3772 91.6511Z" fill="white"/>
<path d="M107.304 97.1547C107.316 97.1427 107.334 97.1368 107.358 97.1368C107.393 97.1368 107.429 97.1606 107.465 97.2083C107.501 97.244 107.513 97.2738 107.501 97.2976C107.155 97.7622 106.834 98.1136 106.536 98.3519C106.238 98.5782 105.934 98.6914 105.624 98.6914C104.898 98.6914 104.54 98.1851 104.552 97.1725L104.57 95.2784C104.213 96.3386 103.718 97.1844 103.087 97.8158C102.468 98.4472 101.807 98.7628 101.104 98.7628C100.639 98.7628 100.264 98.602 99.9779 98.2804C99.692 97.9587 99.5491 97.4584 99.5491 96.7794C99.5491 95.9574 99.7516 95.1295 100.157 94.2956C100.574 93.4618 101.104 92.7708 101.747 92.2229C102.402 91.6749 103.069 91.4009 103.748 91.4009C103.998 91.4009 104.249 91.4426 104.499 91.526C104.761 91.5975 104.987 91.7166 105.178 91.8834C105.368 91.7166 105.499 91.5141 105.571 91.2758C105.571 91.252 105.601 91.2401 105.66 91.2401C105.779 91.2401 105.827 91.258 105.803 91.2937L105.767 96.9402C105.756 97.5954 105.91 97.923 106.232 97.923C106.518 97.923 106.875 97.6669 107.304 97.1547ZM104.517 93.6166C104.517 93.164 104.392 92.8006 104.141 92.5266C103.891 92.2527 103.564 92.1157 103.159 92.1157C102.706 92.1157 102.289 92.2765 101.908 92.5981C101.538 92.9078 101.247 93.3486 101.032 93.9204C100.818 94.4803 100.711 95.1176 100.711 95.8324C100.722 97.107 101.092 97.7443 101.818 97.7443C102.283 97.7443 102.724 97.5239 103.141 97.0832C103.558 96.6305 103.891 96.0825 104.141 95.4393C104.392 94.7841 104.517 94.1765 104.517 93.6166Z" fill="white"/>
<path d="M109.766 98.6914C109.027 98.6914 108.67 98.1851 108.693 97.1725L108.783 87.6306C108.807 87.0231 108.628 86.7193 108.247 86.7193C108.044 86.7193 107.752 86.8086 107.371 86.9873H107.353C107.306 86.9873 107.27 86.9575 107.246 86.898C107.222 86.8384 107.234 86.7967 107.282 86.7729L109.748 85.5757H109.783C109.831 85.5757 109.873 85.5936 109.909 85.6293C109.956 85.665 109.98 85.6948 109.98 85.7186L109.926 96.9402C109.914 97.5954 110.075 97.923 110.409 97.923C110.659 97.923 111.01 97.6669 111.463 97.1547C111.475 97.1427 111.493 97.1368 111.517 97.1368C111.564 97.1368 111.606 97.1606 111.642 97.2083C111.689 97.244 111.701 97.2738 111.678 97.2976C111.308 97.7741 110.981 98.1255 110.695 98.3519C110.409 98.5782 110.099 98.6914 109.766 98.6914Z" fill="white"/>
<path fill-rule="evenodd" clip-rule="evenodd" d="M32.1759 97.9634C32.2758 98.0573 32.4328 98.0524 32.5267 97.9525L33.3036 97.1257C33.3975 97.0258 33.3926 96.8688 33.2927 96.7749C33.1928 96.681 33.0357 96.6859 32.9419 96.7858L32.165 97.6126C32.0711 97.7125 32.076 97.8696 32.1759 97.9634Z" fill="#00A7AC"/>
<path fill-rule="evenodd" clip-rule="evenodd" d="M31.4952 97.2374C31.5951 97.3312 31.7522 97.3263 31.846 97.2265L32.6229 96.3996C32.7168 96.2997 32.7119 96.1427 32.612 96.0488C32.5121 95.955 32.3551 95.9599 32.2612 96.0597L31.4843 96.8866C31.3905 96.9865 31.3953 97.1435 31.4952 97.2374Z" fill="#00A7AC"/>
<path fill-rule="evenodd" clip-rule="evenodd" d="M32.4238 99.1283C32.4238 99.2654 32.5349 99.3765 32.672 99.3765H36.4581C37.3945 99.3765 38.1277 98.5733 38.1277 97.6155V96.7751C38.1277 96.638 38.0166 96.5269 37.8796 96.5269C37.7425 96.5269 37.6314 96.638 37.6314 96.7751V97.6155C37.6314 98.3287 37.0918 98.8801 36.4581 98.8801H32.672C32.5349 98.8801 32.4238 98.9912 32.4238 99.1283Z" fill="#00A7AC"/>
<path fill-rule="evenodd" clip-rule="evenodd" d="M24.6696 98.8801C24.036 98.8801 23.4964 98.3287 23.4964 97.6155V89.7465C23.4964 89.0333 24.036 88.4819 24.6696 88.4819H36.458C37.0917 88.4819 37.6313 89.0333 37.6313 89.7465V90.8391C37.6313 90.9761 37.7424 91.0873 37.8795 91.0873C38.0166 91.0873 38.1277 90.9761 38.1277 90.8391V89.7465C38.1277 88.7887 37.3945 87.9855 36.458 87.9855H24.6696C23.7332 87.9855 23 88.7887 23 89.7465V97.6155C23 98.5733 23.7332 99.3765 24.6696 99.3765H28.1378C28.2749 99.3765 28.386 99.2654 28.386 99.1283C28.386 98.9912 28.2749 98.8801 28.1378 98.8801H24.6696Z" fill="#00A7AC"/>
<path fill-rule="evenodd" clip-rule="evenodd" d="M25.8239 93.2922C24.5528 93.2922 23.4964 92.1908 23.4964 90.7992C23.4964 90.6621 23.3852 90.551 23.2482 90.551C23.1111 90.551 23 90.6621 23 90.7992C23 92.4354 24.25 93.7886 25.8239 93.7886H25.8535C25.9906 93.7886 26.1017 93.6775 26.1017 93.5404C26.1017 93.4033 25.9906 93.2922 25.8535 93.2922H25.8239Z" fill="#00A7AC"/>
<path fill-rule="evenodd" clip-rule="evenodd" d="M26.9346 93.5404C26.9346 93.6775 27.0457 93.7886 27.1827 93.7886H31.6761C31.8131 93.7886 31.9243 93.6775 31.9243 93.5404C31.9243 93.4033 31.8131 93.2922 31.6761 93.2922H27.1827C27.0457 93.2922 26.9346 93.4033 26.9346 93.5404Z" fill="#00A7AC"/>
<path fill-rule="evenodd" clip-rule="evenodd" d="M29.4981 100.112C29.6941 100.32 30.0049 100.32 30.2008 100.112H29.4981ZM29.1364 100.452C29.5284 100.869 30.1706 100.869 30.5625 100.452L32.5172 98.3716C32.7189 98.1569 32.7189 97.8148 32.5172 97.6L31.8584 96.8989C31.6483 96.6754 31.3011 96.6754 31.091 96.8989L29.1364 98.9791C28.7527 99.3875 28.7527 100.043 29.1364 100.452L29.1364 100.452ZM29.4981 100.112C29.2939 99.8946 29.2939 99.5363 29.4981 99.319L31.4528 97.2388C31.4617 97.2293 31.4695 97.2276 31.4747 97.2276C31.4799 97.2276 31.4877 97.2293 31.4966 97.2388L32.1554 97.9399C32.1651 97.9502 32.1721 97.9661 32.1721 97.9858C32.1721 98.0055 32.1651 98.0215 32.1554 98.0317L30.2008 100.112" fill="#00A7AC"/>
<path fill-rule="evenodd" clip-rule="evenodd" d="M32.0743 98.8414C32.1742 98.7475 32.1791 98.5905 32.0852 98.4906L31.0208 97.3578C30.927 97.2579 30.7699 97.253 30.67 97.3469C30.5701 97.4407 30.5653 97.5978 30.6591 97.6977L31.7235 98.8305C31.8174 98.9303 31.9744 98.9352 32.0743 98.8414Z" fill="#00A7AC"/>
<path fill-rule="evenodd" clip-rule="evenodd" d="M32.5795 96.7862C34.135 98.4417 36.664 98.4417 38.2195 96.7862C39.7669 95.1395 39.7669 92.4756 38.2195 90.8289C36.664 89.1733 34.135 89.1733 32.5795 90.8289C31.0321 92.4756 31.0321 95.1395 32.5795 96.7862ZM37.8578 96.4463C36.4983 97.8932 34.3007 97.8932 32.9412 96.4463L32.9412 96.4463C31.5733 94.9906 31.5733 92.6244 32.9412 91.1687L32.9412 91.1687C34.3007 89.7218 36.4983 89.7218 37.8578 91.1687L37.8578 91.1687C39.2256 92.6244 39.2256 94.9906 37.8578 96.4463L38.0286 96.6068L37.8578 96.4463Z" fill="#00A7AC"/>
<path fill-rule="evenodd" clip-rule="evenodd" d="M33.353 95.9634C34.4817 97.1646 36.3185 97.1646 37.4471 95.9634L37.4471 95.9634C37.8516 95.5328 38.1094 95.0071 38.2219 94.4566C38.2493 94.3223 38.1627 94.1912 38.0284 94.1637C37.8941 94.1363 37.763 94.2229 37.7356 94.3572C37.6404 94.8229 37.4232 95.2639 37.0854 95.6235C36.1527 96.616 34.6474 96.616 33.7147 95.6235C32.7738 94.6221 32.7738 92.9926 33.7147 91.9912C34.6474 90.9987 36.1528 90.9987 37.0854 91.9912C37.4229 92.3504 37.64 92.7909 37.7353 93.2561C37.7628 93.3904 37.894 93.477 38.0283 93.4495C38.1625 93.422 38.2491 93.2908 38.2216 93.1565C38.1089 92.6066 37.8512 92.0814 37.4471 91.6513C36.3185 90.4502 34.4817 90.4502 33.353 91.6513C32.2326 92.8437 32.2326 94.771 33.353 95.9634Z" fill="#00A7AC"/>
<path fill-rule="evenodd" clip-rule="evenodd" d="M25.6055 94.7163C25.6055 95.229 25.9997 95.6714 26.5179 95.6714C27.0361 95.6714 27.4303 95.229 27.4303 94.7163V93.0734C27.4303 92.5607 27.0361 92.1183 26.5179 92.1183C25.9997 92.1183 25.6055 92.5607 25.6055 93.0734V94.7163ZM26.5179 95.175C26.3024 95.175 26.1018 94.9844 26.1018 94.7163V93.0734C26.1018 92.8052 26.3024 92.6146 26.5179 92.6146C26.7334 92.6146 26.934 92.8052 26.934 93.0734V94.7163C26.934 94.9844 26.7334 95.175 26.5179 95.175Z" fill="#00A7AC"/>
<path fill-rule="evenodd" clip-rule="evenodd" d="M25.6055 94.1869C25.6055 94.3239 25.7166 94.4351 25.8536 94.4351H27.1822C27.3192 94.4351 27.4303 94.3239 27.4303 94.1869C27.4303 94.0498 27.3192 93.9387 27.1822 93.9387H25.8536C25.7166 93.9387 25.6055 94.0498 25.6055 94.1869Z" fill="#00A7AC"/>
<path fill-rule="evenodd" clip-rule="evenodd" d="M27.8224 88.4824C27.9595 88.4824 28.0706 88.3713 28.0706 88.2342V87.0907C28.0706 86.4052 28.5913 85.8739 29.199 85.8739H31.9272C32.5349 85.8739 33.0557 86.4052 33.0557 87.0907V88.2342C33.0557 88.3713 33.1668 88.4824 33.3038 88.4824C33.4409 88.4824 33.552 88.3713 33.552 88.2342V87.0907C33.552 86.1606 32.8377 85.3775 31.9272 85.3775H29.199C28.2885 85.3775 27.5742 86.1606 27.5742 87.0907V88.2342C27.5742 88.3713 27.6853 88.4824 27.8224 88.4824Z" fill="#00A7AC"/>
<path fill-rule="evenodd" clip-rule="evenodd" d="M28.8146 88.4824C28.9516 88.4824 29.0628 88.3713 29.0628 88.2342V87.0907C29.0628 86.9866 29.1391 86.9282 29.2005 86.9282H31.9287C31.9901 86.9282 32.0664 86.9866 32.0664 87.0907V88.2342C32.0664 88.3713 32.1775 88.4824 32.3146 88.4824C32.4517 88.4824 32.5628 88.3713 32.5628 88.2342V87.0907C32.5628 86.7419 32.2929 86.4319 31.9287 86.4319H29.2005C28.8363 86.4319 28.5664 86.7419 28.5664 87.0907V88.2342C28.5664 88.3713 28.6775 88.4824 28.8146 88.4824Z" fill="#00A7AC"/>
<path d="M36.431 52.7472V67.6775C36.431 69.9012 35.7533 71.5425 34.3979 72.6014C33.0637 73.6603 31.2636 74.1897 28.9975 74.1897C27.7057 74.1897 26.4774 73.8509 25.3126 73.1732C24.1478 72.4955 23.5654 71.6907 23.5654 70.7589C23.5654 70.3989 23.6819 69.9859 23.9149 69.52L25.8209 65.8351L26.9645 66.1845L26.6786 68.154C26.5939 68.8953 26.5515 69.5941 26.5515 70.2506C26.5515 70.9071 26.7739 71.4789 27.2186 71.966C27.6845 72.4531 28.2987 72.6967 29.0611 72.6967C29.8447 72.6967 30.4694 72.4319 30.9353 71.9025C31.4224 71.3731 31.6659 70.5789 31.6659 69.52V52.7472H28.6481V51.4765H38.337V52.7472H36.431Z" fill="#00A7AC"/>
<path d="M41.8363 62.6266C41.8363 59.2593 42.7469 56.4851 44.5682 54.3037C46.4107 52.1012 49.0261 51 52.4146 51C55.8242 51 58.4503 52.0907 60.2927 54.272C62.1352 56.4533 63.0564 59.2382 63.0564 62.6266C63.0564 65.9939 62.1352 68.7682 60.2927 70.9495C58.4503 73.1096 55.8242 74.1897 52.4146 74.1897C49.0261 74.1897 46.4107 73.1096 44.5682 70.9495C42.7469 68.7682 41.8363 65.9939 41.8363 62.6266ZM52.4463 52.493C51.1969 52.493 50.138 52.9801 49.2697 53.9543C47.5966 55.7756 46.7601 58.6664 46.7601 62.6266C46.7601 66.5657 47.5966 69.4353 49.2697 71.2354C50.1591 72.2096 51.218 72.6967 52.4463 72.6967C54.2676 72.6967 55.6654 71.7225 56.6395 69.7741C57.6349 67.8258 58.1326 65.4433 58.1326 62.6266C58.1326 59.7888 57.6349 57.3957 56.6395 55.4473C55.6654 53.4778 54.2676 52.493 52.4463 52.493Z" fill="#00A7AC"/>
<path d="M66.855 52.7472V51.4765H74.479C81.1077 51.4765 84.422 53.4884 84.422 57.5122C84.422 60.3076 82.7808 62.1289 79.4982 62.9761V63.1984C83.4161 63.7914 85.375 65.4009 85.375 68.027C85.375 69.933 84.5067 71.3625 82.7702 72.3155C81.0336 73.2473 78.5875 73.7132 75.432 73.7132H66.855V72.4425H68.761V52.7472H66.855ZM75.1144 63.7702H73.526V72.4425H75.1144C76.6392 72.4425 77.9099 72.0613 78.9264 71.2989C79.9429 70.5365 80.4512 69.4776 80.4512 68.1223C80.4512 66.7457 79.9429 65.6762 78.9264 64.9138C77.9099 64.1514 76.6392 63.7702 75.1144 63.7702ZM74.4473 52.7472H73.526V62.5631H74.4473C75.9509 62.5631 77.1898 62.1184 78.164 61.2289C79.1593 60.3394 79.657 59.1217 79.657 57.5757C79.657 56.0297 79.1593 54.8438 78.164 54.0178C77.1898 53.1707 75.9509 52.7472 74.4473 52.7472Z" fill="white"/>
<path d="M103.609 73.7132H89.3461V72.4425H91.2521V52.7472H89.3461V51.4765H102.974C103.44 51.4765 103.779 51.4977 103.991 51.54C104.224 51.5612 104.435 51.6777 104.626 51.8895C104.817 52.0801 104.912 52.3871 104.912 52.8107L104.054 58.1475H102.815L102.18 55.0026C101.989 54.0496 101.629 53.4354 101.1 53.1601C100.592 52.8848 99.6385 52.7472 98.2408 52.7472H96.0171V63.6114H103.323V65.0409H96.0171V72.4425H98.8761C100.253 72.4425 101.195 72.3049 101.703 72.0296C102.233 71.7543 102.603 71.1401 102.815 70.1871L103.451 67.3599H104.689L105.547 72.379C105.547 72.8026 105.452 73.1202 105.261 73.332C105.071 73.5226 104.859 73.6391 104.626 73.6814C104.414 73.7026 104.075 73.7132 103.609 73.7132Z" fill="white"/>
<path d="M111.547 69.6153C111.547 70.4412 111.95 71.1613 112.754 71.7754C113.559 72.3896 114.597 72.6967 115.868 72.6967C117.138 72.6967 118.144 72.3896 118.885 71.7754C119.627 71.1613 119.997 70.3459 119.997 69.3294C119.997 68.0375 119.224 66.9681 117.678 66.121L112.977 63.6114C110.266 62.1501 108.911 60.0641 108.911 57.3533C108.911 55.6168 109.546 54.1237 110.817 52.8742C112.087 51.6247 113.983 51 116.503 51C118.197 51 119.807 51.3388 121.331 52.0165C122.856 52.6942 123.619 53.499 123.619 54.4308C123.619 54.7908 123.502 55.2038 123.269 55.6697L121.744 58.5922L120.633 58.2428V55.5744C120.633 54.6214 120.209 53.8696 119.362 53.319C118.536 52.7683 117.541 52.493 116.376 52.493C115.232 52.493 114.353 52.8319 113.739 53.5096C113.125 54.1873 112.818 54.9603 112.818 55.8285C112.818 57.5651 113.602 58.8464 115.169 59.6723L119.203 61.8007C122.274 63.4102 123.809 65.528 123.809 68.154C123.809 70.1447 123.057 71.6484 121.554 72.6649C120.071 73.6814 118.187 74.1897 115.899 74.1897C114.184 74.1897 112.532 73.8509 110.944 73.1732C109.355 72.4955 108.561 71.6907 108.561 70.7589C108.561 70.3989 108.678 69.9859 108.911 69.52L110.436 66.5975L111.547 66.9469V69.6153Z" fill="white"/>
</svg>
