<svg width="15" height="15" viewBox="0 0 15 15" fill="none" xmlns="http://www.w3.org/2000/svg">
<path d="M14.4337 6.19585L8.31534 6.19556C8.04517 6.19556 7.82617 6.41452 7.82617 6.6847V8.63924C7.82617 8.90936 8.04517 9.12838 8.31531 9.12838H11.7608C11.3835 10.1075 10.6793 10.9275 9.78092 11.4485L11.2501 13.9917C13.6068 12.6288 15.0001 10.2373 15.0001 7.5602C15.0001 7.17902 14.972 6.90653 14.9158 6.59971C14.8731 6.36659 14.6707 6.19585 14.4337 6.19585Z" fill="#167EE6"/>
<path d="M7.49992 12.0653C5.81377 12.0653 4.34178 11.144 3.5512 9.78076L1.00806 11.2466C2.30225 13.4896 4.72668 15.0001 7.49992 15.0001C8.86038 15.0001 10.1441 14.6338 11.2499 13.9954V13.992L9.78077 11.4487C9.10876 11.8385 8.3311 12.0653 7.49992 12.0653Z" fill="#12B347"/>
<path d="M11.25 13.9952V13.9917L9.78085 11.4485C9.10884 11.8382 8.33124 12.0651 7.5 12.0651V14.9999C8.86046 14.9999 10.1442 14.6336 11.25 13.9952Z" fill="#0F993E"/>
<path d="M2.93479 7.49993C2.93479 6.66881 3.1616 5.89124 3.55128 5.21926L1.00813 3.75342C0.366269 4.85577 0 6.13599 0 7.49993C0 8.86388 0.366269 10.1441 1.00813 11.2464L3.55128 9.7806C3.1616 9.10862 2.93479 8.33105 2.93479 7.49993Z" fill="#FFD500"/>
<path d="M7.49992 2.93479C8.59946 2.93479 9.60944 3.32549 10.3983 3.97538C10.5929 4.13569 10.8758 4.12412 11.0541 3.94585L12.4389 2.56099C12.6412 2.35872 12.6268 2.02764 12.4107 1.8402C11.089 0.693545 9.36927 0 7.49992 0C4.72668 0 2.30225 1.51046 1.00806 3.75349L3.5512 5.21933C4.34178 3.85605 5.81377 2.93479 7.49992 2.93479Z" fill="#FF4B26"/>
<path d="M10.3984 3.97538C10.593 4.13569 10.8759 4.12412 11.0542 3.94585L12.439 2.56099C12.6412 2.35872 12.6268 2.02764 12.4108 1.8402C11.0891 0.693516 9.36935 0 7.5 0V2.93479C8.59951 2.93479 9.60952 3.32549 10.3984 3.97538Z" fill="#D93F21"/>
</svg>
