<svg width="157" height="49" viewBox="0 0 157 49" fill="none" xmlns="http://www.w3.org/2000/svg">
<rect width="157" height="49" rx="5" fill="black"/>
<rect x="0.5" y="0.5" width="156" height="48" rx="4.5" stroke="#00AB62" stroke-opacity="0.2"/>
<path d="M55.928 27.158C56.3107 27.158 56.6653 27.1673 56.992 27.186C57.328 27.2047 57.6453 27.2373 57.944 27.284C58.2427 27.3307 58.5367 27.396 58.826 27.48L58.672 28.768C58.364 28.7493 58.0607 28.7353 57.762 28.726C57.4633 28.7073 57.1647 28.698 56.866 28.698C56.5767 28.6887 56.2827 28.684 55.984 28.684C55.536 28.684 55.158 28.7307 54.85 28.824C54.542 28.908 54.2947 29.076 54.108 29.328C53.9307 29.58 53.8 29.9393 53.716 30.406C53.632 30.8727 53.59 31.4747 53.59 32.212C53.59 33.08 53.646 33.766 53.758 34.27C53.8793 34.7647 54.0753 35.124 54.346 35.348C54.6167 35.5627 54.9807 35.67 55.438 35.67C55.746 35.67 56.0307 35.6327 56.292 35.558C56.5533 35.4833 56.7913 35.3853 57.006 35.264C57.23 35.1333 57.44 35.0027 57.636 34.872L57.846 35.782C57.6967 35.9687 57.4773 36.174 57.188 36.398C56.908 36.6127 56.572 36.7993 56.18 36.958C55.788 37.1073 55.3447 37.182 54.85 37.182C54.122 37.182 53.5247 37.0093 53.058 36.664C52.6007 36.3093 52.2647 35.7633 52.05 35.026C51.8447 34.2793 51.742 33.3227 51.742 32.156C51.742 30.8867 51.8773 29.888 52.148 29.16C52.4187 28.432 52.8573 27.9187 53.464 27.62C54.08 27.312 54.9013 27.158 55.928 27.158ZM59.134 31.428V37H57.846L57.594 35.558L57.426 35.208V31.428H59.134ZM64.0151 29.958C64.8551 29.958 65.5224 30.0747 66.0171 30.308C66.5211 30.5413 66.8804 30.924 67.0951 31.456C67.3191 31.988 67.4311 32.6927 67.4311 33.57C67.4311 34.4473 67.3191 35.152 67.0951 35.684C66.8804 36.2067 66.5211 36.5893 66.0171 36.832C65.5224 37.0653 64.8551 37.182 64.0151 37.182C63.1937 37.182 62.5311 37.0653 62.0271 36.832C61.5324 36.5893 61.1731 36.2067 60.9491 35.684C60.7251 35.152 60.6131 34.4473 60.6131 33.57C60.6131 32.6927 60.7251 31.988 60.9491 31.456C61.1731 30.924 61.5324 30.5413 62.0271 30.308C62.5311 30.0747 63.1937 29.958 64.0151 29.958ZM64.0151 31.246C63.6044 31.246 63.2777 31.316 63.0351 31.456C62.8017 31.5867 62.6337 31.82 62.5311 32.156C62.4284 32.492 62.3771 32.9633 62.3771 33.57C62.3771 34.1767 62.4284 34.648 62.5311 34.984C62.6337 35.32 62.8017 35.5533 63.0351 35.684C63.2777 35.8147 63.6044 35.88 64.0151 35.88C64.4351 35.88 64.7664 35.8147 65.0091 35.684C65.2517 35.5533 65.4197 35.32 65.5131 34.984C65.6157 34.648 65.6671 34.1767 65.6671 33.57C65.6671 32.9633 65.6157 32.492 65.5131 32.156C65.4197 31.82 65.2517 31.5867 65.0091 31.456C64.7664 31.316 64.4351 31.246 64.0151 31.246ZM72.1362 29.958C72.9762 29.958 73.6435 30.0747 74.1382 30.308C74.6422 30.5413 75.0015 30.924 75.2162 31.456C75.4402 31.988 75.5522 32.6927 75.5522 33.57C75.5522 34.4473 75.4402 35.152 75.2162 35.684C75.0015 36.2067 74.6422 36.5893 74.1382 36.832C73.6435 37.0653 72.9762 37.182 72.1362 37.182C71.3148 37.182 70.6522 37.0653 70.1482 36.832C69.6535 36.5893 69.2942 36.2067 69.0702 35.684C68.8462 35.152 68.7342 34.4473 68.7342 33.57C68.7342 32.6927 68.8462 31.988 69.0702 31.456C69.2942 30.924 69.6535 30.5413 70.1482 30.308C70.6522 30.0747 71.3148 29.958 72.1362 29.958ZM72.1362 31.246C71.7255 31.246 71.3988 31.316 71.1562 31.456C70.9228 31.5867 70.7548 31.82 70.6522 32.156C70.5495 32.492 70.4982 32.9633 70.4982 33.57C70.4982 34.1767 70.5495 34.648 70.6522 34.984C70.7548 35.32 70.9228 35.5533 71.1562 35.684C71.3988 35.8147 71.7255 35.88 72.1362 35.88C72.5562 35.88 72.8875 35.8147 73.1302 35.684C73.3728 35.5533 73.5408 35.32 73.6342 34.984C73.7368 34.648 73.7882 34.1767 73.7882 33.57C73.7882 32.9633 73.7368 32.492 73.6342 32.156C73.5408 31.82 73.3728 31.5867 73.1302 31.456C72.8875 31.316 72.5562 31.246 72.1362 31.246ZM80.0613 29.958C80.8359 29.958 81.4473 30.0327 81.8953 30.182C82.3526 30.322 82.6793 30.5553 82.8753 30.882C83.0713 31.1993 83.1693 31.6193 83.1693 32.142C83.1693 32.646 83.0713 33.0613 82.8753 33.388C82.6793 33.7053 82.3526 33.9387 81.8953 34.088C81.4379 34.2373 80.8219 34.312 80.0473 34.312C79.2726 34.312 78.6566 34.2373 78.1993 34.088C77.7513 33.9387 77.4246 33.7053 77.2193 33.388C77.0233 33.0707 76.9253 32.6553 76.9253 32.142C76.9253 31.6193 77.0233 31.1993 77.2193 30.882C77.4246 30.5553 77.7559 30.322 78.2133 30.182C78.6706 30.0327 79.2866 29.958 80.0613 29.958ZM80.0473 31.064C79.4593 31.064 79.0533 31.1433 78.8293 31.302C78.6053 31.4607 78.4933 31.7407 78.4933 32.142C78.4933 32.5247 78.6053 32.8 78.8293 32.968C79.0533 33.1267 79.4593 33.206 80.0473 33.206C80.6353 33.206 81.0366 33.1267 81.2513 32.968C81.4753 32.8 81.5873 32.5247 81.5873 32.142C81.5873 31.7407 81.4753 31.4607 81.2513 31.302C81.0366 31.1433 80.6353 31.064 80.0473 31.064ZM83.9673 30.126L83.8693 30.91L82.0773 31.106L81.5733 30.126H83.9673ZM78.0453 33.892L78.9133 34.018C78.7733 34.13 78.6753 34.2747 78.6193 34.452C78.5726 34.62 78.5866 34.7833 78.6613 34.942C78.7453 35.0913 78.9226 35.1847 79.1933 35.222L81.7413 35.558C82.4319 35.642 82.9173 35.8473 83.1973 36.174C83.4773 36.4913 83.6173 36.9533 83.6173 37.56C83.6173 38.1293 83.5053 38.5727 83.2813 38.89C83.0573 39.2073 82.6886 39.4267 82.1753 39.548C81.6713 39.6787 80.9899 39.744 80.1313 39.744C79.4499 39.744 78.8853 39.7067 78.4373 39.632C77.9893 39.5667 77.6299 39.45 77.3593 39.282C77.0979 39.1233 76.9113 38.9133 76.7993 38.652C76.6873 38.4 76.6313 38.0827 76.6313 37.7C76.6313 37.4013 76.6779 37.1493 76.7713 36.944C76.8739 36.7387 77.0373 36.5567 77.2613 36.398C77.4853 36.23 77.7886 36.076 78.1713 35.936L79.1233 35.53L79.7813 35.768L79.1653 36.202C78.9506 36.3607 78.7733 36.5053 78.6333 36.636C78.5026 36.7573 78.4046 36.8787 78.3393 37C78.2833 37.1307 78.2553 37.294 78.2553 37.49C78.2553 37.7513 78.3066 37.952 78.4093 38.092C78.5213 38.232 78.7126 38.3253 78.9833 38.372C79.2539 38.428 79.6319 38.456 80.1173 38.456C80.6119 38.456 80.9946 38.428 81.2653 38.372C81.5359 38.3253 81.7226 38.232 81.8253 38.092C81.9373 37.9613 81.9933 37.77 81.9933 37.518C81.9933 37.3127 81.9606 37.1587 81.8953 37.056C81.8299 36.9627 81.7133 36.888 81.5453 36.832C81.3773 36.776 81.1439 36.7293 80.8453 36.692L78.5493 36.412C78.2226 36.3747 77.9613 36.2813 77.7653 36.132C77.5786 35.9733 77.4479 35.7867 77.3733 35.572C77.2986 35.348 77.2753 35.1287 77.3033 34.914C77.3406 34.69 77.4199 34.4847 77.5413 34.298C77.6719 34.1113 77.8399 33.976 78.0453 33.892ZM86.8553 27.2L86.8413 34.928C86.8413 35.1893 86.916 35.39 87.0653 35.53C87.2146 35.6607 87.4293 35.726 87.7093 35.726H88.3113L88.5073 36.916C88.4046 36.9627 88.26 37.0047 88.0733 37.042C87.896 37.0793 87.7093 37.1027 87.5133 37.112C87.3266 37.1307 87.1633 37.14 87.0233 37.14C86.454 37.14 86.0013 36.986 85.6653 36.678C85.3293 36.37 85.1613 35.9267 85.1613 35.348V27.2H86.8553ZM92.6293 29.958C93.74 29.958 94.538 30.154 95.0233 30.546C95.5087 30.9287 95.756 31.498 95.7653 32.254C95.7747 32.8793 95.6253 33.3553 95.3173 33.682C95.0187 33.9993 94.5193 34.158 93.8193 34.158H89.8993V33.108H93.3573C93.6747 33.108 93.8753 33.024 93.9593 32.856C94.0527 32.688 94.0993 32.4827 94.0993 32.24C94.09 31.8573 93.978 31.5913 93.7633 31.442C93.558 31.2927 93.2033 31.218 92.6993 31.218C92.2607 31.218 91.92 31.2787 91.6773 31.4C91.4347 31.5213 91.262 31.7407 91.1593 32.058C91.066 32.3753 91.0193 32.8327 91.0193 33.43C91.0193 34.0647 91.08 34.5547 91.2013 34.9C91.3227 35.2453 91.5233 35.4833 91.8033 35.614C92.0833 35.7353 92.4567 35.796 92.9233 35.796C93.2687 35.796 93.6653 35.782 94.1133 35.754C94.5707 35.726 95.0093 35.6887 95.4293 35.642L95.5973 36.72C95.3453 36.8227 95.056 36.9067 94.7293 36.972C94.4027 37.0373 94.062 37.084 93.7073 37.112C93.362 37.1493 93.0353 37.168 92.7273 37.168C91.8873 37.168 91.2107 37.0467 90.6973 36.804C90.1933 36.552 89.8247 36.16 89.5913 35.628C89.3673 35.096 89.2553 34.41 89.2553 33.57C89.2553 32.6647 89.3673 31.9507 89.5913 31.428C89.8247 30.896 90.1887 30.518 90.6833 30.294C91.1873 30.07 91.836 29.958 92.6293 29.958ZM104.018 27.214C104.868 27.214 105.535 27.3073 106.02 27.494C106.506 27.6713 106.851 27.984 107.056 28.432C107.271 28.8707 107.378 29.496 107.378 30.308C107.378 31.12 107.276 31.75 107.07 32.198C106.874 32.646 106.543 32.9587 106.076 33.136C105.619 33.3133 105.008 33.402 104.242 33.402C103.822 33.402 103.416 33.388 103.024 33.36C102.642 33.332 102.282 33.2947 101.946 33.248C101.62 33.2013 101.34 33.1547 101.106 33.108C100.873 33.052 100.71 33.0053 100.616 32.968L100.658 32.03C101.19 32.03 101.736 32.03 102.296 32.03C102.866 32.03 103.43 32.03 103.99 32.03C104.401 32.0207 104.723 31.9693 104.956 31.876C105.199 31.7827 105.367 31.6147 105.46 31.372C105.563 31.12 105.614 30.7653 105.614 30.308C105.614 29.8507 105.563 29.5007 105.46 29.258C105.367 29.006 105.199 28.8333 104.956 28.74C104.723 28.6373 104.401 28.586 103.99 28.586C103.169 28.586 102.464 28.5907 101.876 28.6C101.288 28.6093 100.887 28.6233 100.672 28.642L100.476 27.34C100.85 27.3027 101.2 27.2747 101.526 27.256C101.862 27.2373 102.222 27.228 102.604 27.228C102.996 27.2187 103.468 27.214 104.018 27.214ZM102.226 27.34V37H100.476V27.34H102.226ZM110.549 27.2L110.535 34.928C110.535 35.1893 110.609 35.39 110.759 35.53C110.908 35.6607 111.123 35.726 111.403 35.726H112.005L112.201 36.916C112.098 36.9627 111.953 37.0047 111.767 37.042C111.589 37.0793 111.403 37.1027 111.207 37.112C111.02 37.1307 110.857 37.14 110.717 37.14C110.147 37.14 109.695 36.986 109.359 36.678C109.023 36.37 108.855 35.9267 108.855 35.348V27.2H110.549ZM116.715 29.958C117.265 29.958 117.727 30.0327 118.101 30.182C118.483 30.322 118.773 30.5647 118.969 30.91C119.165 31.2553 119.263 31.7313 119.263 32.338V37H117.919L117.681 35.516L117.555 35.32V32.324C117.555 31.96 117.471 31.6987 117.303 31.54C117.135 31.372 116.813 31.288 116.337 31.288C115.982 31.288 115.534 31.302 114.993 31.33C114.461 31.358 113.924 31.3953 113.383 31.442L113.229 30.28C113.555 30.2147 113.924 30.1587 114.335 30.112C114.745 30.0653 115.161 30.028 115.581 30C116.001 29.972 116.379 29.958 116.715 29.958ZM118.535 32.772L118.521 33.822H115.371C115.091 33.8313 114.89 33.906 114.769 34.046C114.647 34.186 114.587 34.3773 114.587 34.62V34.998C114.587 35.278 114.661 35.4927 114.811 35.642C114.96 35.782 115.193 35.852 115.511 35.852C115.763 35.852 116.043 35.8007 116.351 35.698C116.659 35.5953 116.962 35.446 117.261 35.25C117.569 35.054 117.844 34.8207 118.087 34.55V35.432C117.993 35.572 117.858 35.74 117.681 35.936C117.503 36.1227 117.284 36.3093 117.023 36.496C116.771 36.6827 116.477 36.8367 116.141 36.958C115.814 37.0793 115.45 37.14 115.049 37.14C114.638 37.14 114.269 37.07 113.943 36.93C113.616 36.7807 113.359 36.566 113.173 36.286C112.986 35.9967 112.893 35.642 112.893 35.222V34.494C112.893 33.9527 113.07 33.5327 113.425 33.234C113.789 32.926 114.283 32.772 114.909 32.772H118.535ZM127.643 30.126L125.067 37.21C124.946 37.5367 124.792 37.8587 124.605 38.176C124.428 38.5027 124.199 38.7967 123.919 39.058C123.639 39.3193 123.308 39.5247 122.925 39.674C122.542 39.8233 122.099 39.8793 121.595 39.842L121.455 38.834C122.015 38.6753 122.449 38.4607 122.757 38.19C123.074 37.9193 123.322 37.574 123.499 37.154L123.877 36.258C123.961 36.0527 124.04 35.8193 124.115 35.558C124.199 35.2873 124.269 35.054 124.325 34.858L125.823 30.126H127.643ZM122.099 30.126L123.625 34.858C123.672 35.0167 123.714 35.18 123.751 35.348C123.788 35.5067 123.821 35.6653 123.849 35.824H124.199L123.667 37H123.219C123.088 37 122.972 36.9627 122.869 36.888C122.766 36.8133 122.696 36.7107 122.659 36.58L120.293 30.126H122.099Z" fill="white"/>
<path d="M54.66 18.1C54.04 18.1 53.5033 17.9633 53.05 17.69C52.5967 17.4167 52.2433 17.03 51.99 16.53C51.7367 16.0233 51.61 15.4133 51.61 14.7C51.61 14 51.74 13.3967 52 12.89C52.2667 12.3833 52.64 11.9933 53.12 11.72C53.6067 11.44 54.1633 11.3 54.79 11.3C55.4767 11.3 56.03 11.4267 56.45 11.68C56.8767 11.9333 57.2167 12.3267 57.47 12.86L56.48 13.33C56.3533 12.9633 56.1433 12.69 55.85 12.51C55.5633 12.3233 55.2133 12.23 54.8 12.23C54.3867 12.23 54.0233 12.3267 53.71 12.52C53.4033 12.7133 53.1633 12.9967 52.99 13.37C52.8167 13.7367 52.73 14.18 52.73 14.7C52.73 15.2267 52.8067 15.6767 52.96 16.05C53.1133 16.4167 53.3433 16.6967 53.65 16.89C53.9633 17.0833 54.3467 17.18 54.8 17.18C55.0467 17.18 55.2767 17.15 55.49 17.09C55.7033 17.0233 55.89 16.93 56.05 16.81C56.21 16.6833 56.3333 16.5267 56.42 16.34C56.5133 16.1467 56.56 15.92 56.56 15.66V15.47H54.64V14.6H57.51V18H56.71L56.65 16.67L56.85 16.77C56.69 17.19 56.4233 17.5167 56.05 17.75C55.6833 17.9833 55.22 18.1 54.66 18.1ZM59.2163 18V11.4H63.9963V12.32H60.2863V14.22H63.1863V15.12H60.2863V17.08H64.1363V18H59.2163ZM70.4838 11.4V12.32H68.2238V18H67.1538V12.32H64.8938V11.4H70.4838ZM75.843 11.4V18H74.773V11.4H75.843ZM83.2103 11.4V18H81.9403L79.3903 13.84L78.7503 12.67H78.7403L78.7803 13.74V18H77.8003V11.4H79.0603L81.6003 15.55L82.2503 16.74H82.2603L82.2203 15.66V11.4H83.2103Z" fill="white"/>
<path fill-rule="evenodd" clip-rule="evenodd" d="M20.4537 12.3837C20.1656 12.6857 20 13.1506 20 13.7547V35.2417C20 35.8458 20.1656 36.3107 20.4645 36.6022L20.5426 36.6665L32.8861 24.6269V24.3564L20.5318 12.3193L20.4537 12.3837Z" fill="url(#paint0_linear_627_431)"/>
<path fill-rule="evenodd" clip-rule="evenodd" d="M36.9922 28.6552L32.875 24.638V24.357L36.9935 20.3398L37.0824 20.3937L41.9536 23.0937C43.3484 23.8606 43.3484 25.1239 41.9536 25.9014L37.0824 28.6013C37.0811 28.6013 36.9922 28.6552 36.9922 28.6552Z" fill="url(#paint1_linear_627_431)"/>
<path fill-rule="evenodd" clip-rule="evenodd" d="M37.0808 28.6019L32.8747 24.498L20.4531 36.6139C20.9069 37.0893 21.6702 37.1431 22.5238 36.6782L37.0808 28.6019Z" fill="url(#paint2_linear_627_431)"/>
<path fill-rule="evenodd" clip-rule="evenodd" d="M37.0808 20.3952L22.5238 12.3294C21.6716 11.854 20.9069 11.9184 20.4531 12.3938L32.8734 24.4978L37.0808 20.3952Z" fill="url(#paint3_linear_627_431)"/>
<path opacity="0.2" fill-rule="evenodd" clip-rule="evenodd" d="M36.9919 28.5151L22.5346 36.5271C21.7268 36.9802 21.0065 36.9487 20.542 36.5376L20.4639 36.6138L20.542 36.6781C21.0065 37.0879 21.7268 37.1207 22.5346 36.6676L37.0915 28.6018L36.9919 28.5151Z" fill="black"/>
<path opacity="0.12" fill-rule="evenodd" clip-rule="evenodd" d="M41.9522 25.7614L36.9814 28.5152L37.0703 28.6019L41.9415 25.9019C42.6389 25.5132 42.9822 25.0063 42.9822 24.498C42.9378 24.9629 42.5837 25.4055 41.9522 25.7614Z" fill="black"/>
<path opacity="0.25" fill-rule="evenodd" clip-rule="evenodd" d="M22.5244 12.47L41.9525 23.2358C42.584 23.5812 42.9381 24.0343 42.9933 24.4992C42.9933 23.9923 42.6499 23.484 41.9525 23.0953L22.5244 12.3295C21.1296 11.5521 20 12.1995 20 13.7544V13.8949C20 12.34 21.1296 11.7031 22.5244 12.47Z" fill="white"/>
<defs>
<linearGradient id="paint0_linear_627_431" x1="31.7777" y1="13.5237" x2="12.0723" y2="18.9068" gradientUnits="userSpaceOnUse">
<stop stop-color="#00A0FF"/>
<stop offset="0.007" stop-color="#00A1FF"/>
<stop offset="0.26" stop-color="#00BEFF"/>
<stop offset="0.512" stop-color="#00D2FF"/>
<stop offset="0.76" stop-color="#00DFFF"/>
<stop offset="1" stop-color="#00E3FF"/>
</linearGradient>
<linearGradient id="paint1_linear_627_431" x1="43.7686" y1="24.4981" x2="19.6607" y2="24.4981" gradientUnits="userSpaceOnUse">
<stop stop-color="#FFE000"/>
<stop offset="0.409" stop-color="#FFBD00"/>
<stop offset="0.775" stop-color="#FFA500"/>
<stop offset="1" stop-color="#FF9C00"/>
</linearGradient>
<linearGradient id="paint2_linear_627_431" x1="34.7936" y1="26.7306" x2="19.4983" y2="53.1233" gradientUnits="userSpaceOnUse">
<stop stop-color="#FF3A44"/>
<stop offset="1" stop-color="#C31162"/>
</linearGradient>
<linearGradient id="paint3_linear_627_431" x1="17.3263" y1="5.23563" x2="24.1499" y2="17.0228" gradientUnits="userSpaceOnUse">
<stop stop-color="#32A071"/>
<stop offset="0.069" stop-color="#2DA771"/>
<stop offset="0.476" stop-color="#15CF74"/>
<stop offset="0.801" stop-color="#06E775"/>
<stop offset="1" stop-color="#00F076"/>
</linearGradient>
</defs>
</svg>
