<svg width="251" height="213" viewBox="0 0 251 213" fill="none" xmlns="http://www.w3.org/2000/svg">
<path d="M56.1333 93.5L56.1333 141.517C56.1333 143.174 57.4764 144.517 59.1333 144.517L99.1333 144.517" stroke="black" stroke-width="1.01212" stroke-dasharray="4.02 4.02"/>
<path d="M195.52 92.9996L195.52 141C195.52 142.656 194.177 144 192.52 144L152.52 144" stroke="black" stroke-width="1.01212"/>
<circle cx="57.46" cy="67.46" r="25.96" fill="white" stroke="black"/>
<path d="M49 76.9996V74.8882C49 73.7688 49.4449 72.6945 50.2366 71.9028C51.0283 71.1112 52.1033 70.6663 53.2228 70.6663H61.6667C62.7861 70.6663 63.8612 71.1112 64.6528 71.9028C65.4445 72.6945 65.8894 73.7688 65.8894 74.8882V76.9996" stroke="black" stroke-width="1.5" stroke-linecap="round" stroke-linejoin="round"/>
<path d="M57.4441 66.4439C59.7763 66.4439 61.666 64.5542 61.666 62.222C61.666 59.8897 59.7763 58 57.4441 58C55.1118 58 53.2221 59.8897 53.2221 62.222C53.2221 64.5542 55.1118 66.4439 57.4441 66.4439Z" stroke="black" stroke-width="1.5" stroke-linecap="round" stroke-linejoin="round"/>
<circle cx="126.46" cy="145.46" r="25.96" fill="#062427" stroke="#062427"/>
<path d="M137.472 137H135.389C131.222 137 128.028 139.361 126.361 142.278C124.694 139.222 121.361 137 117.333 137H115.25C114.556 137 114 137.555 114 138.25V140.333C114 146.166 118.722 150.75 124.417 150.75H125.25V155.75C125.25 156.444 125.806 157 126.5 157C127.194 157 127.75 156.444 127.75 155.75V150.75H128.583C134.278 150.75 139 146.166 139 140.333V138.25C138.722 137.555 138.167 137 137.472 137ZM124.972 148.111H124.139C119.833 148.111 116.361 144.639 116.361 140.333V139.5H117.194C121.5 139.5 124.972 142.972 124.972 147.278V148.111ZM136.222 140.333C136.222 144.639 132.75 148.111 128.444 148.111H127.611V147.278C127.611 142.972 131.083 139.5 135.389 139.5H136.222V140.333Z" fill="white"/>
<circle cx="193.46" cy="67.46" r="25.96" fill="white" stroke="black"/>
<path fill-rule="evenodd" clip-rule="evenodd" d="M201.61 60.2074C202.047 60.5442 202.129 61.172 201.793 61.6098L191.793 74.6097C191.617 74.8377 191.352 74.9792 191.065 74.9978C190.778 75.0165 190.496 74.9105 190.293 74.7071L185.293 69.7072C184.902 69.3166 184.902 68.6835 185.293 68.2929C185.683 67.9024 186.317 67.9024 186.707 68.2929L190.902 72.4876L200.207 60.3903C200.544 59.9526 201.172 59.8707 201.61 60.2074Z" fill="black"/>
</svg>
