<svg width="46" height="8" viewBox="0 0 46 8" fill="none" xmlns="http://www.w3.org/2000/svg">
<path d="M1 0.5C0.723858 0.5 0.5 0.723858 0.5 1C0.5 1.27614 0.723858 1.5 1 1.5V0.5ZM23.5 7C23.5 7.27614 23.7239 7.5 24 7.5C24.2761 7.5 24.5 7.27614 24.5 7H23.5ZM45 1.5C45.2761 1.5 45.5 1.27614 45.5 1C45.5 0.723858 45.2761 0.5 45 0.5V1.5ZM1 1.5H20V0.5H1V1.5ZM20 1.5C20.0313 1.5 20.1174 1.51267 20.2642 1.57474C20.4044 1.63406 20.5742 1.72752 20.7643 1.85778C21.1443 2.11817 21.5789 2.50729 21.989 3.00535C22.811 4.00351 23.5 5.39486 23.5 7H24.5C24.5 5.10514 23.689 3.49649 22.761 2.36965C22.2961 1.80521 21.7932 1.35058 21.3295 1.03285C21.0977 0.874043 20.8691 0.744843 20.6538 0.653774C20.4451 0.565459 20.2187 0.5 20 0.5V1.5ZM24.5 7C24.5 6.69418 24.5854 6.18432 24.7669 5.57173C24.9459 4.96758 25.2087 4.29616 25.5412 3.67279C25.8753 3.04625 26.2685 2.48961 26.6997 2.09573C27.1302 1.70252 27.5653 1.5 28 1.5V0.5C27.2347 0.5 26.5698 0.85998 26.0253 1.3574C25.4815 1.85414 25.0247 2.51625 24.6588 3.20221C24.2913 3.89134 24.0041 4.62617 23.8081 5.28764C23.6146 5.94068 23.5 6.55582 23.5 7H24.5ZM28 1.5C28.0047 1.5 28.0094 1.5 28.0141 1.5C28.0189 1.5 28.0236 1.5 28.0284 1.5C28.0332 1.5 28.038 1.5 28.0429 1.5C28.0477 1.5 28.0526 1.5 28.0574 1.5C28.0623 1.5 28.0672 1.5 28.0722 1.5C28.0771 1.5 28.0821 1.5 28.0871 1.5C28.092 1.5 28.097 1.5 28.1021 1.5C28.1071 1.5 28.1122 1.5 28.1172 1.5C28.1223 1.5 28.1274 1.5 28.1326 1.5C28.1377 1.5 28.1429 1.5 28.148 1.5C28.1532 1.5 28.1584 1.5 28.1636 1.5C28.1689 1.5 28.1741 1.5 28.1794 1.5C28.1847 1.5 28.19 1.5 28.1953 1.5C28.2006 1.5 28.206 1.5 28.2113 1.5C28.2167 1.5 28.2221 1.5 28.2275 1.5C28.2329 1.5 28.2384 1.5 28.2438 1.5C28.2493 1.5 28.2548 1.5 28.2603 1.5C28.2658 1.5 28.2714 1.5 28.2769 1.5C28.2825 1.5 28.2881 1.5 28.2937 1.5C28.2993 1.5 28.3049 1.5 28.3106 1.5C28.3162 1.5 28.3219 1.5 28.3276 1.5C28.3333 1.5 28.339 1.5 28.3448 1.5C28.3505 1.5 28.3563 1.5 28.3621 1.5C28.3679 1.5 28.3737 1.5 28.3796 1.5C28.3854 1.5 28.3913 1.5 28.3972 1.5C28.403 1.5 28.409 1.5 28.4149 1.5C28.4208 1.5 28.4268 1.5 28.4328 1.5C28.4387 1.5 28.4447 1.5 28.4508 1.5C28.4568 1.5 28.4628 1.5 28.4689 1.5C28.475 1.5 28.4811 1.5 28.4872 1.5C28.4933 1.5 28.4995 1.5 28.5056 1.5C28.5118 1.5 28.518 1.5 28.5242 1.5C28.5304 1.5 28.5366 1.5 28.5429 1.5C28.5491 1.5 28.5554 1.5 28.5617 1.5C28.568 1.5 28.5743 1.5 28.5806 1.5C28.587 1.5 28.5934 1.5 28.5997 1.5C28.6061 1.5 28.6125 1.5 28.619 1.5C28.6254 1.5 28.6319 1.5 28.6383 1.5C28.6448 1.5 28.6513 1.5 28.6578 1.5C28.6643 1.5 28.6709 1.5 28.6775 1.5C28.684 1.5 28.6906 1.5 28.6972 1.5C28.7038 1.5 28.7105 1.5 28.7171 1.5C28.7238 1.5 28.7304 1.5 28.7371 1.5C28.7438 1.5 28.7505 1.5 28.7573 1.5C28.764 1.5 28.7708 1.5 28.7776 1.5C28.7843 1.5 28.7912 1.5 28.798 1.5C28.8048 1.5 28.8117 1.5 28.8185 1.5C28.8254 1.5 28.8323 1.5 28.8392 1.5C28.8461 1.5 28.853 1.5 28.86 1.5C28.8669 1.5 28.8739 1.5 28.8809 1.5C28.8879 1.5 28.8949 1.5 28.902 1.5C28.909 1.5 28.9161 1.5 28.9232 1.5C28.9302 1.5 28.9373 1.5 28.9445 1.5C28.9516 1.5 28.9587 1.5 28.9659 1.5C28.9731 1.5 28.9803 1.5 28.9875 1.5C28.9947 1.5 29.0019 1.5 29.0091 1.5C29.0164 1.5 29.0237 1.5 29.031 1.5C29.0383 1.5 29.0456 1.5 29.0529 1.5C29.0602 1.5 29.0676 1.5 29.075 1.5C29.0823 1.5 29.0897 1.5 29.0971 1.5C29.1046 1.5 29.112 1.5 29.1195 1.5C29.1269 1.5 29.1344 1.5 29.1419 1.5C29.1494 1.5 29.1569 1.5 29.1644 1.5C29.172 1.5 29.1795 1.5 29.1871 1.5C29.1947 1.5 29.2023 1.5 29.2099 1.5C29.2175 1.5 29.2252 1.5 29.2328 1.5C29.2405 1.5 29.2482 1.5 29.2559 1.5C29.2636 1.5 29.2713 1.5 29.279 1.5C29.2868 1.5 29.2945 1.5 29.3023 1.5C29.3101 1.5 29.3179 1.5 29.3257 1.5C29.3335 1.5 29.3414 1.5 29.3492 1.5C29.3571 1.5 29.3649 1.5 29.3728 1.5C29.3807 1.5 29.3887 1.5 29.3966 1.5C29.4045 1.5 29.4125 1.5 29.4205 1.5C29.4284 1.5 29.4364 1.5 29.4445 1.5C29.4525 1.5 29.4605 1.5 29.4686 1.5C29.4766 1.5 29.4847 1.5 29.4928 1.5C29.5009 1.5 29.509 1.5 29.5171 1.5C29.5252 1.5 29.5334 1.5 29.5416 1.5C29.5497 1.5 29.5579 1.5 29.5661 1.5C29.5743 1.5 29.5826 1.5 29.5908 1.5C29.5991 1.5 29.6073 1.5 29.6156 1.5C29.6239 1.5 29.6322 1.5 29.6405 1.5C29.6488 1.5 29.6572 1.5 29.6655 1.5C29.6739 1.5 29.6823 1.5 29.6907 1.5C29.6991 1.5 29.7075 1.5 29.7159 1.5C29.7244 1.5 29.7328 1.5 29.7413 1.5C29.7497 1.5 29.7582 1.5 29.7667 1.5C29.7753 1.5 29.7838 1.5 29.7923 1.5C29.8009 1.5 29.8094 1.5 29.818 1.5C29.8266 1.5 29.8352 1.5 29.8438 1.5C29.8524 1.5 29.8611 1.5 29.8697 1.5C29.8784 1.5 29.8871 1.5 29.8958 1.5C29.9044 1.5 29.9132 1.5 29.9219 1.5C29.9306 1.5 29.9394 1.5 29.9481 1.5C29.9569 1.5 29.9657 1.5 29.9745 1.5C29.9833 1.5 29.9921 1.5 30.0009 1.5C30.0098 1.5 30.0186 1.5 30.0275 1.5C30.0363 1.5 30.0452 1.5 30.0541 1.5C30.063 1.5 30.072 1.5 30.0809 1.5C30.0899 1.5 30.0988 1.5 30.1078 1.5C30.1168 1.5 30.1258 1.5 30.1348 1.5C30.1438 1.5 30.1528 1.5 30.1619 1.5C30.1709 1.5 30.18 1.5 30.1891 1.5C30.1981 1.5 30.2072 1.5 30.2164 1.5C30.2255 1.5 30.2346 1.5 30.2438 1.5C30.2529 1.5 30.2621 1.5 30.2713 1.5C30.2804 1.5 30.2896 1.5 30.2989 1.5C30.3081 1.5 30.3173 1.5 30.3266 1.5C30.3358 1.5 30.3451 1.5 30.3544 1.5C30.3637 1.5 30.373 1.5 30.3823 1.5C30.3916 1.5 30.401 1.5 30.4103 1.5C30.4197 1.5 30.429 1.5 30.4384 1.5C30.4478 1.5 30.4572 1.5 30.4666 1.5C30.4761 1.5 30.4855 1.5 30.4949 1.5C30.5044 1.5 30.5139 1.5 30.5234 1.5C30.5328 1.5 30.5424 1.5 30.5519 1.5C30.5614 1.5 30.5709 1.5 30.5805 1.5C30.59 1.5 30.5996 1.5 30.6092 1.5C30.6188 1.5 30.6284 1.5 30.638 1.5C30.6476 1.5 30.6572 1.5 30.6669 1.5C30.6765 1.5 30.6862 1.5 30.6959 1.5C30.7056 1.5 30.7153 1.5 30.725 1.5C30.7347 1.5 30.7444 1.5 30.7542 1.5C30.7639 1.5 30.7737 1.5 30.7835 1.5C30.7932 1.5 30.803 1.5 30.8128 1.5C30.8226 1.5 30.8325 1.5 30.8423 1.5C30.8521 1.5 30.862 1.5 30.8719 1.5C30.8817 1.5 30.8916 1.5 30.9015 1.5C30.9114 1.5 30.9214 1.5 30.9313 1.5C30.9412 1.5 30.9512 1.5 30.9611 1.5C30.9711 1.5 30.9811 1.5 30.9911 1.5C31.0011 1.5 31.0111 1.5 31.0211 1.5C31.0311 1.5 31.0412 1.5 31.0512 1.5C31.0613 1.5 31.0714 1.5 31.0814 1.5C31.0915 1.5 31.1016 1.5 31.1117 1.5C31.1219 1.5 31.132 1.5 31.1421 1.5C31.1523 1.5 31.1624 1.5 31.1726 1.5C31.1828 1.5 31.193 1.5 31.2032 1.5C31.2134 1.5 31.2236 1.5 31.2338 1.5C31.2441 1.5 31.2543 1.5 31.2646 1.5C31.2749 1.5 31.2851 1.5 31.2954 1.5C31.3057 1.5 31.316 1.5 31.3264 1.5C31.3367 1.5 31.347 1.5 31.3574 1.5C31.3677 1.5 31.3781 1.5 31.3885 1.5C31.3988 1.5 31.4092 1.5 31.4196 1.5C31.4301 1.5 31.4405 1.5 31.4509 1.5C31.4614 1.5 31.4718 1.5 31.4823 1.5C31.4927 1.5 31.5032 1.5 31.5137 1.5C31.5242 1.5 31.5347 1.5 31.5452 1.5C31.5557 1.5 31.5663 1.5 31.5768 1.5C31.5874 1.5 31.5979 1.5 31.6085 1.5C31.6191 1.5 31.6297 1.5 31.6403 1.5C31.6509 1.5 31.6615 1.5 31.6722 1.5C31.6828 1.5 31.6934 1.5 31.7041 1.5C31.7147 1.5 31.7254 1.5 31.7361 1.5C31.7468 1.5 31.7575 1.5 31.7682 1.5C31.7789 1.5 31.7896 1.5 31.8004 1.5C31.8111 1.5 31.8219 1.5 31.8326 1.5C31.8434 1.5 31.8542 1.5 31.865 1.5C31.8758 1.5 31.8866 1.5 31.8974 1.5C31.9082 1.5 31.9191 1.5 31.9299 1.5C31.9408 1.5 31.9516 1.5 31.9625 1.5C31.9734 1.5 31.9842 1.5 31.9951 1.5C32.006 1.5 32.017 1.5 32.0279 1.5C32.0388 1.5 32.0497 1.5 32.0607 1.5C32.0716 1.5 32.0826 1.5 32.0936 1.5C32.1046 1.5 32.1155 1.5 32.1265 1.5C32.1375 1.5 32.1486 1.5 32.1596 1.5C32.1706 1.5 32.1816 1.5 32.1927 1.5C32.2037 1.5 32.2148 1.5 32.2259 1.5C32.237 1.5 32.2481 1.5 32.2592 1.5C32.2703 1.5 32.2814 1.5 32.2925 1.5C32.3036 1.5 32.3148 1.5 32.3259 1.5C32.3371 1.5 32.3482 1.5 32.3594 1.5C32.3706 1.5 32.3818 1.5 32.393 1.5C32.4042 1.5 32.4154 1.5 32.4266 1.5C32.4378 1.5 32.449 1.5 32.4603 1.5C32.4715 1.5 32.4828 1.5 32.4941 1.5C32.5053 1.5 32.5166 1.5 32.5279 1.5C32.5392 1.5 32.5505 1.5 32.5618 1.5C32.5731 1.5 32.5845 1.5 32.5958 1.5C32.6072 1.5 32.6185 1.5 32.6299 1.5C32.6412 1.5 32.6526 1.5 32.664 1.5C32.6754 1.5 32.6868 1.5 32.6982 1.5C32.7096 1.5 32.721 1.5 32.7325 1.5C32.7439 1.5 32.7553 1.5 32.7668 1.5C32.7782 1.5 32.7897 1.5 32.8012 1.5C32.8127 1.5 32.8242 1.5 32.8357 1.5C32.8472 1.5 32.8587 1.5 32.8702 1.5C32.8817 1.5 32.8932 1.5 32.9048 1.5C32.9163 1.5 32.9279 1.5 32.9395 1.5C32.951 1.5 32.9626 1.5 32.9742 1.5C32.9858 1.5 32.9974 1.5 33.009 1.5C33.0206 1.5 33.0322 1.5 33.0438 1.5C33.0555 1.5 33.0671 1.5 33.0788 1.5C33.0904 1.5 33.1021 1.5 33.1138 1.5C33.1254 1.5 33.1371 1.5 33.1488 1.5C33.1605 1.5 33.1722 1.5 33.1839 1.5C33.1956 1.5 33.2074 1.5 33.2191 1.5C33.2308 1.5 33.2426 1.5 33.2543 1.5C33.2661 1.5 33.2779 1.5 33.2896 1.5C33.3014 1.5 33.3132 1.5 33.325 1.5C33.3368 1.5 33.3486 1.5 33.3604 1.5C33.3722 1.5 33.3841 1.5 33.3959 1.5C33.4077 1.5 33.4196 1.5 33.4314 1.5C33.4433 1.5 33.4552 1.5 33.467 1.5C33.4789 1.5 33.4908 1.5 33.5027 1.5C33.5146 1.5 33.5265 1.5 33.5384 1.5C33.5503 1.5 33.5623 1.5 33.5742 1.5C33.5861 1.5 33.5981 1.5 33.61 1.5C33.622 1.5 33.6339 1.5 33.6459 1.5C33.6579 1.5 33.6699 1.5 33.6819 1.5C33.6939 1.5 33.7059 1.5 33.7179 1.5C33.7299 1.5 33.7419 1.5 33.7539 1.5C33.766 1.5 33.778 1.5 33.7901 1.5C33.8021 1.5 33.8142 1.5 33.8262 1.5C33.8383 1.5 33.8504 1.5 33.8624 1.5C33.8745 1.5 33.8866 1.5 33.8987 1.5C33.9108 1.5 33.9229 1.5 33.9351 1.5C33.9472 1.5 33.9593 1.5 33.9714 1.5C33.9836 1.5 33.9957 1.5 34.0079 1.5C34.02 1.5 34.0322 1.5 34.0444 1.5C34.0565 1.5 34.0687 1.5 34.0809 1.5C34.0931 1.5 34.1053 1.5 34.1175 1.5C34.1297 1.5 34.1419 1.5 34.1541 1.5C34.1664 1.5 34.1786 1.5 34.1908 1.5C34.2031 1.5 34.2153 1.5 34.2276 1.5C34.2398 1.5 34.2521 1.5 34.2644 1.5C34.2767 1.5 34.2889 1.5 34.3012 1.5C34.3135 1.5 34.3258 1.5 34.3381 1.5C34.3504 1.5 34.3627 1.5 34.3751 1.5C34.3874 1.5 34.3997 1.5 34.412 1.5C34.4244 1.5 34.4367 1.5 34.4491 1.5C34.4614 1.5 34.4738 1.5 34.4862 1.5C34.4985 1.5 34.5109 1.5 34.5233 1.5C34.5357 1.5 34.5481 1.5 34.5605 1.5C34.5729 1.5 34.5853 1.5 34.5977 1.5C34.6101 1.5 34.6225 1.5 34.635 1.5C34.6474 1.5 34.6598 1.5 34.6723 1.5C34.6847 1.5 34.6972 1.5 34.7096 1.5C34.7221 1.5 34.7346 1.5 34.747 1.5C34.7595 1.5 34.772 1.5 34.7845 1.5C34.797 1.5 34.8095 1.5 34.822 1.5C34.8345 1.5 34.847 1.5 34.8595 1.5C34.872 1.5 34.8845 1.5 34.8971 1.5C34.9096 1.5 34.9221 1.5 34.9347 1.5C34.9472 1.5 34.9598 1.5 34.9723 1.5C34.9849 1.5 34.9975 1.5 35.01 1.5C35.0226 1.5 35.0352 1.5 35.0478 1.5C35.0603 1.5 35.0729 1.5 35.0855 1.5C35.0981 1.5 35.1107 1.5 35.1234 1.5C35.136 1.5 35.1486 1.5 35.1612 1.5C35.1738 1.5 35.1865 1.5 35.1991 1.5C35.2117 1.5 35.2244 1.5 35.237 1.5C35.2497 1.5 35.2623 1.5 35.275 1.5C35.2877 1.5 35.3003 1.5 35.313 1.5C35.3257 1.5 35.3384 1.5 35.3511 1.5C35.3637 1.5 35.3764 1.5 35.3891 1.5C35.4018 1.5 35.4145 1.5 35.4272 1.5C35.44 1.5 35.4527 1.5 35.4654 1.5C35.4781 1.5 35.4909 1.5 35.5036 1.5C35.5163 1.5 35.5291 1.5 35.5418 1.5C35.5546 1.5 35.5673 1.5 35.5801 1.5C35.5928 1.5 35.6056 1.5 35.6184 1.5C35.6311 1.5 35.6439 1.5 35.6567 1.5C35.6695 1.5 35.6822 1.5 35.695 1.5C35.7078 1.5 35.7206 1.5 35.7334 1.5C35.7462 1.5 35.759 1.5 35.7718 1.5C35.7847 1.5 35.7975 1.5 35.8103 1.5C35.8231 1.5 35.8359 1.5 35.8488 1.5C35.8616 1.5 35.8745 1.5 35.8873 1.5C35.9001 1.5 35.913 1.5 35.9258 1.5C35.9387 1.5 35.9516 1.5 35.9644 1.5C35.9773 1.5 35.9902 1.5 36.003 1.5C36.0159 1.5 36.0288 1.5 36.0417 1.5C36.0545 1.5 36.0674 1.5 36.0803 1.5C36.0932 1.5 36.1061 1.5 36.119 1.5C36.1319 1.5 36.1448 1.5 36.1577 1.5C36.1706 1.5 36.1836 1.5 36.1965 1.5C36.2094 1.5 36.2223 1.5 36.2352 1.5C36.2482 1.5 36.2611 1.5 36.274 1.5C36.287 1.5 36.2999 1.5 36.3129 1.5C36.3258 1.5 36.3388 1.5 36.3517 1.5C36.3647 1.5 36.3776 1.5 36.3906 1.5C36.4036 1.5 36.4165 1.5 36.4295 1.5C36.4425 1.5 36.4554 1.5 36.4684 1.5C36.4814 1.5 36.4944 1.5 36.5074 1.5C36.5204 1.5 36.5334 1.5 36.5463 1.5C36.5593 1.5 36.5723 1.5 36.5853 1.5C36.5983 1.5 36.6113 1.5 36.6244 1.5C36.6374 1.5 36.6504 1.5 36.6634 1.5C36.6764 1.5 36.6894 1.5 36.7025 1.5C36.7155 1.5 36.7285 1.5 36.7415 1.5C36.7546 1.5 36.7676 1.5 36.7806 1.5C36.7937 1.5 36.8067 1.5 36.8198 1.5C36.8328 1.5 36.8459 1.5 36.8589 1.5C36.872 1.5 36.885 1.5 36.8981 1.5C36.9111 1.5 36.9242 1.5 36.9373 1.5C36.9503 1.5 36.9634 1.5 36.9765 1.5C36.9895 1.5 37.0026 1.5 37.0157 1.5C37.0287 1.5 37.0418 1.5 37.0549 1.5C37.068 1.5 37.0811 1.5 37.0942 1.5C37.1072 1.5 37.1203 1.5 37.1334 1.5C37.1465 1.5 37.1596 1.5 37.1727 1.5C37.1858 1.5 37.1989 1.5 37.212 1.5C37.2251 1.5 37.2382 1.5 37.2513 1.5C37.2644 1.5 37.2776 1.5 37.2907 1.5C37.3038 1.5 37.3169 1.5 37.33 1.5C37.3431 1.5 37.3563 1.5 37.3694 1.5C37.3825 1.5 37.3956 1.5 37.4088 1.5C37.4219 1.5 37.435 1.5 37.4481 1.5C37.4613 1.5 37.4744 1.5 37.4875 1.5C37.5007 1.5 37.5138 1.5 37.527 1.5C37.5401 1.5 37.5532 1.5 37.5664 1.5C37.5795 1.5 37.5927 1.5 37.6058 1.5C37.619 1.5 37.6321 1.5 37.6453 1.5C37.6584 1.5 37.6716 1.5 37.6847 1.5C37.6979 1.5 37.711 1.5 37.7242 1.5C37.7374 1.5 37.7505 1.5 37.7637 1.5C37.7768 1.5 37.79 1.5 37.8032 1.5C37.8163 1.5 37.8295 1.5 37.8427 1.5C37.8558 1.5 37.869 1.5 37.8822 1.5C37.8953 1.5 37.9085 1.5 37.9217 1.5C37.9348 1.5 37.948 1.5 37.9612 1.5C37.9744 1.5 37.9875 1.5 38.0007 1.5C38.0139 1.5 38.0271 1.5 38.0403 1.5C38.0534 1.5 38.0666 1.5 38.0798 1.5C38.093 1.5 38.1062 1.5 38.1194 1.5C38.1325 1.5 38.1457 1.5 38.1589 1.5C38.1721 1.5 38.1853 1.5 38.1985 1.5C38.2116 1.5 38.2248 1.5 38.238 1.5C38.2512 1.5 38.2644 1.5 38.2776 1.5C38.2908 1.5 38.304 1.5 38.3172 1.5C38.3303 1.5 38.3435 1.5 38.3567 1.5C38.3699 1.5 38.3831 1.5 38.3963 1.5C38.4095 1.5 38.4227 1.5 38.4359 1.5C38.4491 1.5 38.4623 1.5 38.4755 1.5C38.4887 1.5 38.5019 1.5 38.515 1.5C38.5282 1.5 38.5414 1.5 38.5546 1.5C38.5678 1.5 38.581 1.5 38.5942 1.5C38.6074 1.5 38.6206 1.5 38.6338 1.5C38.647 1.5 38.6602 1.5 38.6734 1.5C38.6866 1.5 38.6998 1.5 38.713 1.5C38.7262 1.5 38.7393 1.5 38.7525 1.5C38.7657 1.5 38.7789 1.5 38.7921 1.5C38.8053 1.5 38.8185 1.5 38.8317 1.5C38.8449 1.5 38.8581 1.5 38.8713 1.5C38.8845 1.5 38.8977 1.5 38.9108 1.5C38.924 1.5 38.9372 1.5 38.9504 1.5C38.9636 1.5 38.9768 1.5 38.99 1.5C39.0032 1.5 39.0164 1.5 39.0295 1.5C39.0427 1.5 39.0559 1.5 39.0691 1.5C39.0823 1.5 39.0955 1.5 39.1086 1.5C39.1218 1.5 39.135 1.5 39.1482 1.5C39.1614 1.5 39.1746 1.5 39.1877 1.5C39.2009 1.5 39.2141 1.5 39.2273 1.5C39.2404 1.5 39.2536 1.5 39.2668 1.5C39.28 1.5 39.2931 1.5 39.3063 1.5C39.3195 1.5 39.3327 1.5 39.3458 1.5C39.359 1.5 39.3722 1.5 39.3853 1.5C39.3985 1.5 39.4117 1.5 39.4248 1.5C39.438 1.5 39.4511 1.5 39.4643 1.5C39.4775 1.5 39.4906 1.5 39.5038 1.5C39.5169 1.5 39.5301 1.5 39.5432 1.5C39.5564 1.5 39.5695 1.5 39.5827 1.5C39.5959 1.5 39.609 1.5 39.6221 1.5C39.6353 1.5 39.6484 1.5 39.6616 1.5C39.6747 1.5 39.6879 1.5 39.701 1.5C39.7141 1.5 39.7273 1.5 39.7404 1.5C39.7535 1.5 39.7667 1.5 39.7798 1.5C39.7929 1.5 39.8061 1.5 39.8192 1.5C39.8323 1.5 39.8454 1.5 39.8586 1.5C39.8717 1.5 39.8848 1.5 39.8979 1.5C39.911 1.5 39.9241 1.5 39.9373 1.5C39.9504 1.5 39.9635 1.5 39.9766 1.5C39.9897 1.5 40.0028 1.5 40.0159 1.5C40.029 1.5 40.0421 1.5 40.0552 1.5C40.0683 1.5 40.0814 1.5 40.0945 1.5C40.1076 1.5 40.1207 1.5 40.1337 1.5C40.1468 1.5 40.1599 1.5 40.173 1.5C40.1861 1.5 40.1991 1.5 40.2122 1.5C40.2253 1.5 40.2384 1.5 40.2514 1.5C40.2645 1.5 40.2776 1.5 40.2906 1.5C40.3037 1.5 40.3167 1.5 40.3298 1.5C40.3429 1.5 40.3559 1.5 40.369 1.5C40.382 1.5 40.3951 1.5 40.4081 1.5C40.4211 1.5 40.4342 1.5 40.4472 1.5C40.4602 1.5 40.4733 1.5 40.4863 1.5C40.4993 1.5 40.5124 1.5 40.5254 1.5C40.5384 1.5 40.5514 1.5 40.5644 1.5C40.5774 1.5 40.5905 1.5 40.6035 1.5C40.6165 1.5 40.6295 1.5 40.6425 1.5C40.6555 1.5 40.6685 1.5 40.6815 1.5C40.6945 1.5 40.7074 1.5 40.7204 1.5C40.7334 1.5 40.7464 1.5 40.7594 1.5C40.7723 1.5 40.7853 1.5 40.7983 1.5C40.8113 1.5 40.8242 1.5 40.8372 1.5C40.8501 1.5 40.8631 1.5 40.876 1.5C40.889 1.5 40.9019 1.5 40.9149 1.5C40.9278 1.5 40.9408 1.5 40.9537 1.5C40.9666 1.5 40.9796 1.5 40.9925 1.5C41.0054 1.5 41.0183 1.5 41.0313 1.5C41.0442 1.5 41.0571 1.5 41.07 1.5C41.0829 1.5 41.0958 1.5 41.1087 1.5C41.1216 1.5 41.1345 1.5 41.1474 1.5C41.1603 1.5 41.1732 1.5 41.186 1.5C41.1989 1.5 41.2118 1.5 41.2247 1.5C41.2375 1.5 41.2504 1.5 41.2633 1.5C41.2761 1.5 41.289 1.5 41.3018 1.5C41.3147 1.5 41.3275 1.5 41.3404 1.5C41.3532 1.5 41.366 1.5 41.3789 1.5C41.3917 1.5 41.4045 1.5 41.4173 1.5C41.4302 1.5 41.443 1.5 41.4558 1.5C41.4686 1.5 41.4814 1.5 41.4942 1.5C41.507 1.5 41.5198 1.5 41.5326 1.5C41.5454 1.5 41.5581 1.5 41.5709 1.5C41.5837 1.5 41.5965 1.5 41.6092 1.5C41.622 1.5 41.6348 1.5 41.6475 1.5C41.6603 1.5 41.673 1.5 41.6857 1.5C41.6985 1.5 41.7112 1.5 41.724 1.5C41.7367 1.5 41.7494 1.5 41.7621 1.5C41.7749 1.5 41.7876 1.5 41.8003 1.5C41.813 1.5 41.8257 1.5 41.8384 1.5C41.8511 1.5 41.8638 1.5 41.8764 1.5C41.8891 1.5 41.9018 1.5 41.9145 1.5C41.9272 1.5 41.9398 1.5 41.9525 1.5C41.9651 1.5 41.9778 1.5 41.9904 1.5C42.0031 1.5 42.0157 1.5 42.0284 1.5C42.041 1.5 42.0536 1.5 42.0662 1.5C42.0789 1.5 42.0915 1.5 42.1041 1.5C42.1167 1.5 42.1293 1.5 42.1419 1.5C42.1545 1.5 42.1671 1.5 42.1796 1.5C42.1922 1.5 42.2048 1.5 42.2174 1.5C42.2299 1.5 42.2425 1.5 42.255 1.5C42.2676 1.5 42.2801 1.5 42.2927 1.5C42.3052 1.5 42.3178 1.5 42.3303 1.5C42.3428 1.5 42.3553 1.5 42.3678 1.5C42.3804 1.5 42.3929 1.5 42.4054 1.5C42.4179 1.5 42.4303 1.5 42.4428 1.5C42.4553 1.5 42.4678 1.5 42.4803 1.5C42.4927 1.5 42.5052 1.5 42.5176 1.5C42.5301 1.5 42.5425 1.5 42.555 1.5C42.5674 1.5 42.5799 1.5 42.5923 1.5C42.6047 1.5 42.6171 1.5 42.6295 1.5C42.6419 1.5 42.6543 1.5 42.6667 1.5C42.6791 1.5 42.6915 1.5 42.7039 1.5C42.7163 1.5 42.7287 1.5 42.741 1.5C42.7534 1.5 42.7657 1.5 42.7781 1.5C42.7904 1.5 42.8028 1.5 42.8151 1.5C42.8274 1.5 42.8398 1.5 42.8521 1.5C42.8644 1.5 42.8767 1.5 42.889 1.5C42.9013 1.5 42.9136 1.5 42.9259 1.5C42.9382 1.5 42.9504 1.5 42.9627 1.5C42.975 1.5 42.9872 1.5 42.9995 1.5C43.0117 1.5 43.024 1.5 43.0362 1.5C43.0484 1.5 43.0607 1.5 43.0729 1.5C43.0851 1.5 43.0973 1.5 43.1095 1.5C43.1217 1.5 43.1339 1.5 43.1461 1.5C43.1583 1.5 43.1705 1.5 43.1826 1.5C43.1948 1.5 43.2069 1.5 43.2191 1.5C43.2312 1.5 43.2434 1.5 43.2555 1.5C43.2676 1.5 43.2798 1.5 43.2919 1.5C43.304 1.5 43.3161 1.5 43.3282 1.5C43.3403 1.5 43.3524 1.5 43.3645 1.5C43.3765 1.5 43.3886 1.5 43.4007 1.5C43.4127 1.5 43.4248 1.5 43.4368 1.5C43.4489 1.5 43.4609 1.5 43.4729 1.5C43.4849 1.5 43.4969 1.5 43.5089 1.5C43.521 1.5 43.5329 1.5 43.5449 1.5C43.5569 1.5 43.5689 1.5 43.5809 1.5C43.5928 1.5 43.6048 1.5 43.6167 1.5C43.6287 1.5 43.6406 1.5 43.6525 1.5C43.6645 1.5 43.6764 1.5 43.6883 1.5C43.7002 1.5 43.7121 1.5 43.724 1.5C43.7359 1.5 43.7478 1.5 43.7596 1.5C43.7715 1.5 43.7834 1.5 43.7952 1.5C43.8071 1.5 43.8189 1.5 43.8307 1.5C43.8426 1.5 43.8544 1.5 43.8662 1.5C43.878 1.5 43.8898 1.5 43.9016 1.5C43.9134 1.5 43.9252 1.5 43.937 1.5C43.9487 1.5 43.9605 1.5 43.9722 1.5C43.984 1.5 43.9957 1.5 44.0075 1.5C44.0192 1.5 44.0309 1.5 44.0426 1.5C44.0543 1.5 44.066 1.5 44.0777 1.5C44.0894 1.5 44.1011 1.5 44.1127 1.5C44.1244 1.5 44.1361 1.5 44.1477 1.5C44.1593 1.5 44.171 1.5 44.1826 1.5C44.1942 1.5 44.2058 1.5 44.2174 1.5C44.229 1.5 44.2406 1.5 44.2522 1.5C44.2638 1.5 44.2754 1.5 44.2869 1.5C44.2985 1.5 44.31 1.5 44.3216 1.5C44.3331 1.5 44.3446 1.5 44.3561 1.5C44.3677 1.5 44.3792 1.5 44.3907 1.5C44.4021 1.5 44.4136 1.5 44.4251 1.5C44.4366 1.5 44.448 1.5 44.4595 1.5C44.4709 1.5 44.4824 1.5 44.4938 1.5C44.5052 1.5 44.5166 1.5 44.528 1.5C44.5394 1.5 44.5508 1.5 44.5622 1.5C44.5736 1.5 44.5849 1.5 44.5963 1.5C44.6077 1.5 44.619 1.5 44.6303 1.5C44.6417 1.5 44.653 1.5 44.6643 1.5C44.6756 1.5 44.6869 1.5 44.6982 1.5C44.7095 1.5 44.7208 1.5 44.732 1.5C44.7433 1.5 44.7545 1.5 44.7658 1.5C44.777 1.5 44.7882 1.5 44.7994 1.5C44.8107 1.5 44.8219 1.5 44.8331 1.5C44.8442 1.5 44.8554 1.5 44.8666 1.5C44.8778 1.5 44.8889 1.5 44.9001 1.5C44.9112 1.5 44.9223 1.5 44.9334 1.5C44.9446 1.5 44.9557 1.5 44.9668 1.5C44.9779 1.5 44.9889 1.5 45 1.5V0.5C44.9889 0.5 44.9779 0.5 44.9668 0.5C44.9557 0.5 44.9446 0.5 44.9334 0.5C44.9223 0.5 44.9112 0.5 44.9001 0.5C44.8889 0.5 44.8778 0.5 44.8666 0.5C44.8554 0.5 44.8442 0.5 44.8331 0.5C44.8219 0.5 44.8107 0.5 44.7994 0.5C44.7882 0.5 44.777 0.5 44.7658 0.5C44.7545 0.5 44.7433 0.5 44.732 0.5C44.7208 0.5 44.7095 0.5 44.6982 0.5C44.6869 0.5 44.6756 0.5 44.6643 0.5C44.653 0.5 44.6417 0.5 44.6303 0.5C44.619 0.5 44.6077 0.5 44.5963 0.5C44.5849 0.5 44.5736 0.5 44.5622 0.5C44.5508 0.5 44.5394 0.5 44.528 0.5C44.5166 0.5 44.5052 0.5 44.4938 0.5C44.4824 0.5 44.4709 0.5 44.4595 0.5C44.448 0.5 44.4366 0.5 44.4251 0.5C44.4136 0.5 44.4021 0.5 44.3907 0.5C44.3792 0.5 44.3677 0.5 44.3561 0.5C44.3446 0.5 44.3331 0.5 44.3216 0.5C44.31 0.5 44.2985 0.5 44.2869 0.5C44.2754 0.5 44.2638 0.5 44.2522 0.5C44.2406 0.5 44.229 0.5 44.2174 0.5C44.2058 0.5 44.1942 0.5 44.1826 0.5C44.171 0.5 44.1593 0.5 44.1477 0.5C44.1361 0.5 44.1244 0.5 44.1127 0.5C44.1011 0.5 44.0894 0.5 44.0777 0.5C44.066 0.5 44.0543 0.5 44.0426 0.5C44.0309 0.5 44.0192 0.5 44.0075 0.5C43.9957 0.5 43.984 0.5 43.9722 0.5C43.9605 0.5 43.9487 0.5 43.937 0.5C43.9252 0.5 43.9134 0.5 43.9016 0.5C43.8898 0.5 43.878 0.5 43.8662 0.5C43.8544 0.5 43.8426 0.5 43.8307 0.5C43.8189 0.5 43.8071 0.5 43.7952 0.5C43.7834 0.5 43.7715 0.5 43.7596 0.5C43.7478 0.5 43.7359 0.5 43.724 0.5C43.7121 0.5 43.7002 0.5 43.6883 0.5C43.6764 0.5 43.6645 0.5 43.6525 0.5C43.6406 0.5 43.6287 0.5 43.6167 0.5C43.6048 0.5 43.5928 0.5 43.5809 0.5C43.5689 0.5 43.5569 0.5 43.5449 0.5C43.5329 0.5 43.521 0.5 43.5089 0.5C43.4969 0.5 43.4849 0.5 43.4729 0.5C43.4609 0.5 43.4489 0.5 43.4368 0.5C43.4248 0.5 43.4127 0.5 43.4007 0.5C43.3886 0.5 43.3765 0.5 43.3645 0.5C43.3524 0.5 43.3403 0.5 43.3282 0.5C43.3161 0.5 43.304 0.5 43.2919 0.5C43.2798 0.5 43.2676 0.5 43.2555 0.5C43.2434 0.5 43.2312 0.5 43.2191 0.5C43.2069 0.5 43.1948 0.5 43.1826 0.5C43.1705 0.5 43.1583 0.5 43.1461 0.5C43.1339 0.5 43.1217 0.5 43.1095 0.5C43.0973 0.5 43.0851 0.5 43.0729 0.5C43.0607 0.5 43.0484 0.5 43.0362 0.5C43.024 0.5 43.0117 0.5 42.9995 0.5C42.9872 0.5 42.975 0.5 42.9627 0.5C42.9504 0.5 42.9382 0.5 42.9259 0.5C42.9136 0.5 42.9013 0.5 42.889 0.5C42.8767 0.5 42.8644 0.5 42.8521 0.5C42.8398 0.5 42.8274 0.5 42.8151 0.5C42.8028 0.5 42.7904 0.5 42.7781 0.5C42.7657 0.5 42.7534 0.5 42.741 0.5C42.7287 0.5 42.7163 0.5 42.7039 0.5C42.6915 0.5 42.6791 0.5 42.6667 0.5C42.6543 0.5 42.6419 0.5 42.6295 0.5C42.6171 0.5 42.6047 0.5 42.5923 0.5C42.5799 0.5 42.5674 0.5 42.555 0.5C42.5425 0.5 42.5301 0.5 42.5176 0.5C42.5052 0.5 42.4927 0.5 42.4803 0.5C42.4678 0.5 42.4553 0.5 42.4428 0.5C42.4303 0.5 42.4179 0.5 42.4054 0.5C42.3929 0.5 42.3804 0.5 42.3678 0.5C42.3553 0.5 42.3428 0.5 42.3303 0.5C42.3178 0.5 42.3052 0.5 42.2927 0.5C42.2801 0.5 42.2676 0.5 42.255 0.5C42.2425 0.5 42.2299 0.5 42.2174 0.5C42.2048 0.5 42.1922 0.5 42.1796 0.5C42.1671 0.5 42.1545 0.5 42.1419 0.5C42.1293 0.5 42.1167 0.5 42.1041 0.5C42.0915 0.5 42.0789 0.5 42.0662 0.5C42.0536 0.5 42.041 0.5 42.0284 0.5C42.0157 0.5 42.0031 0.5 41.9904 0.5C41.9778 0.5 41.9651 0.5 41.9525 0.5C41.9398 0.5 41.9272 0.5 41.9145 0.5C41.9018 0.5 41.8891 0.5 41.8764 0.5C41.8638 0.5 41.8511 0.5 41.8384 0.5C41.8257 0.5 41.813 0.5 41.8003 0.5C41.7876 0.5 41.7749 0.5 41.7621 0.5C41.7494 0.5 41.7367 0.5 41.724 0.5C41.7112 0.5 41.6985 0.5 41.6857 0.5C41.673 0.5 41.6603 0.5 41.6475 0.5C41.6348 0.5 41.622 0.5 41.6092 0.5C41.5965 0.5 41.5837 0.5 41.5709 0.5C41.5581 0.5 41.5454 0.5 41.5326 0.5C41.5198 0.5 41.507 0.5 41.4942 0.5C41.4814 0.5 41.4686 0.5 41.4558 0.5C41.443 0.5 41.4302 0.5 41.4173 0.5C41.4045 0.5 41.3917 0.5 41.3789 0.5C41.366 0.5 41.3532 0.5 41.3404 0.5C41.3275 0.5 41.3147 0.5 41.3018 0.5C41.289 0.5 41.2761 0.5 41.2633 0.5C41.2504 0.5 41.2375 0.5 41.2247 0.5C41.2118 0.5 41.1989 0.5 41.186 0.5C41.1732 0.5 41.1603 0.5 41.1474 0.5C41.1345 0.5 41.1216 0.5 41.1087 0.5C41.0958 0.5 41.0829 0.5 41.07 0.5C41.0571 0.5 41.0442 0.5 41.0313 0.5C41.0183 0.5 41.0054 0.5 40.9925 0.5C40.9796 0.5 40.9666 0.5 40.9537 0.5C40.9408 0.5 40.9278 0.5 40.9149 0.5C40.9019 0.5 40.889 0.5 40.876 0.5C40.8631 0.5 40.8501 0.5 40.8372 0.5C40.8242 0.5 40.8113 0.5 40.7983 0.5C40.7853 0.5 40.7723 0.5 40.7594 0.5C40.7464 0.5 40.7334 0.5 40.7204 0.5C40.7074 0.5 40.6945 0.5 40.6815 0.5C40.6685 0.5 40.6555 0.5 40.6425 0.5C40.6295 0.5 40.6165 0.5 40.6035 0.5C40.5905 0.5 40.5774 0.5 40.5644 0.5C40.5514 0.5 40.5384 0.5 40.5254 0.5C40.5124 0.5 40.4993 0.5 40.4863 0.5C40.4733 0.5 40.4602 0.5 40.4472 0.5C40.4342 0.5 40.4211 0.5 40.4081 0.5C40.3951 0.5 40.382 0.5 40.369 0.5C40.3559 0.5 40.3429 0.5 40.3298 0.5C40.3167 0.5 40.3037 0.5 40.2906 0.5C40.2776 0.5 40.2645 0.5 40.2514 0.5C40.2384 0.5 40.2253 0.5 40.2122 0.5C40.1991 0.5 40.1861 0.5 40.173 0.5C40.1599 0.5 40.1468 0.5 40.1337 0.5C40.1207 0.5 40.1076 0.5 40.0945 0.5C40.0814 0.5 40.0683 0.5 40.0552 0.5C40.0421 0.5 40.029 0.5 40.0159 0.5C40.0028 0.5 39.9897 0.5 39.9766 0.5C39.9635 0.5 39.9504 0.5 39.9373 0.5C39.9241 0.5 39.911 0.5 39.8979 0.5C39.8848 0.5 39.8717 0.5 39.8586 0.5C39.8454 0.5 39.8323 0.5 39.8192 0.5C39.8061 0.5 39.7929 0.5 39.7798 0.5C39.7667 0.5 39.7535 0.5 39.7404 0.5C39.7273 0.5 39.7141 0.5 39.701 0.5C39.6879 0.5 39.6747 0.5 39.6616 0.5C39.6484 0.5 39.6353 0.5 39.6221 0.5C39.609 0.5 39.5959 0.5 39.5827 0.5C39.5695 0.5 39.5564 0.5 39.5432 0.5C39.5301 0.5 39.5169 0.5 39.5038 0.5C39.4906 0.5 39.4775 0.5 39.4643 0.5C39.4511 0.5 39.438 0.5 39.4248 0.5C39.4117 0.5 39.3985 0.5 39.3853 0.5C39.3722 0.5 39.359 0.5 39.3458 0.5C39.3327 0.5 39.3195 0.5 39.3063 0.5C39.2931 0.5 39.28 0.5 39.2668 0.5C39.2536 0.5 39.2404 0.5 39.2273 0.5C39.2141 0.5 39.2009 0.5 39.1877 0.5C39.1746 0.5 39.1614 0.5 39.1482 0.5C39.135 0.5 39.1218 0.5 39.1086 0.5C39.0955 0.5 39.0823 0.5 39.0691 0.5C39.0559 0.5 39.0427 0.5 39.0295 0.5C39.0164 0.5 39.0032 0.5 38.99 0.5C38.9768 0.5 38.9636 0.5 38.9504 0.5C38.9372 0.5 38.924 0.5 38.9108 0.5C38.8977 0.5 38.8845 0.5 38.8713 0.5C38.8581 0.5 38.8449 0.5 38.8317 0.5C38.8185 0.5 38.8053 0.5 38.7921 0.5C38.7789 0.5 38.7657 0.5 38.7525 0.5C38.7393 0.5 38.7262 0.5 38.713 0.5C38.6998 0.5 38.6866 0.5 38.6734 0.5C38.6602 0.5 38.647 0.5 38.6338 0.5C38.6206 0.5 38.6074 0.5 38.5942 0.5C38.581 0.5 38.5678 0.5 38.5546 0.5C38.5414 0.5 38.5282 0.5 38.515 0.5C38.5019 0.5 38.4887 0.5 38.4755 0.5C38.4623 0.5 38.4491 0.5 38.4359 0.5C38.4227 0.5 38.4095 0.5 38.3963 0.5C38.3831 0.5 38.3699 0.5 38.3567 0.5C38.3435 0.5 38.3303 0.5 38.3172 0.5C38.304 0.5 38.2908 0.5 38.2776 0.5C38.2644 0.5 38.2512 0.5 38.238 0.5C38.2248 0.5 38.2116 0.5 38.1985 0.5C38.1853 0.5 38.1721 0.5 38.1589 0.5C38.1457 0.5 38.1325 0.5 38.1194 0.5C38.1062 0.5 38.093 0.5 38.0798 0.5C38.0666 0.5 38.0534 0.5 38.0403 0.5C38.0271 0.5 38.0139 0.5 38.0007 0.5C37.9875 0.5 37.9744 0.5 37.9612 0.5C37.948 0.5 37.9348 0.5 37.9217 0.5C37.9085 0.5 37.8953 0.5 37.8822 0.5C37.869 0.5 37.8558 0.5 37.8427 0.5C37.8295 0.5 37.8163 0.5 37.8032 0.5C37.79 0.5 37.7768 0.5 37.7637 0.5C37.7505 0.5 37.7374 0.5 37.7242 0.5C37.711 0.5 37.6979 0.5 37.6847 0.5C37.6716 0.5 37.6584 0.5 37.6453 0.5C37.6321 0.5 37.619 0.5 37.6058 0.5C37.5927 0.5 37.5795 0.5 37.5664 0.5C37.5532 0.5 37.5401 0.5 37.527 0.5C37.5138 0.5 37.5007 0.5 37.4875 0.5C37.4744 0.5 37.4613 0.5 37.4481 0.5C37.435 0.5 37.4219 0.5 37.4088 0.5C37.3956 0.5 37.3825 0.5 37.3694 0.5C37.3563 0.5 37.3431 0.5 37.33 0.5C37.3169 0.5 37.3038 0.5 37.2907 0.5C37.2776 0.5 37.2644 0.5 37.2513 0.5C37.2382 0.5 37.2251 0.5 37.212 0.5C37.1989 0.5 37.1858 0.5 37.1727 0.5C37.1596 0.5 37.1465 0.5 37.1334 0.5C37.1203 0.5 37.1072 0.5 37.0942 0.5C37.0811 0.5 37.068 0.5 37.0549 0.5C37.0418 0.5 37.0287 0.5 37.0157 0.5C37.0026 0.5 36.9895 0.5 36.9765 0.5C36.9634 0.5 36.9503 0.5 36.9373 0.5C36.9242 0.5 36.9111 0.5 36.8981 0.5C36.885 0.5 36.872 0.5 36.8589 0.5C36.8459 0.5 36.8328 0.5 36.8198 0.5C36.8067 0.5 36.7937 0.5 36.7806 0.5C36.7676 0.5 36.7546 0.5 36.7415 0.5C36.7285 0.5 36.7155 0.5 36.7025 0.5C36.6894 0.5 36.6764 0.5 36.6634 0.5C36.6504 0.5 36.6374 0.5 36.6244 0.5C36.6113 0.5 36.5983 0.5 36.5853 0.5C36.5723 0.5 36.5593 0.5 36.5463 0.5C36.5334 0.5 36.5204 0.5 36.5074 0.5C36.4944 0.5 36.4814 0.5 36.4684 0.5C36.4554 0.5 36.4425 0.5 36.4295 0.5C36.4165 0.5 36.4036 0.5 36.3906 0.5C36.3776 0.5 36.3647 0.5 36.3517 0.5C36.3388 0.5 36.3258 0.5 36.3129 0.5C36.2999 0.5 36.287 0.5 36.274 0.5C36.2611 0.5 36.2482 0.5 36.2352 0.5C36.2223 0.5 36.2094 0.5 36.1965 0.5C36.1836 0.5 36.1706 0.5 36.1577 0.5C36.1448 0.5 36.1319 0.5 36.119 0.5C36.1061 0.5 36.0932 0.5 36.0803 0.5C36.0674 0.5 36.0545 0.5 36.0417 0.5C36.0288 0.5 36.0159 0.5 36.003 0.5C35.9902 0.5 35.9773 0.5 35.9644 0.5C35.9516 0.5 35.9387 0.5 35.9258 0.5C35.913 0.5 35.9001 0.5 35.8873 0.5C35.8745 0.5 35.8616 0.5 35.8488 0.5C35.8359 0.5 35.8231 0.5 35.8103 0.5C35.7975 0.5 35.7847 0.5 35.7718 0.5C35.759 0.5 35.7462 0.5 35.7334 0.5C35.7206 0.5 35.7078 0.5 35.695 0.5C35.6822 0.5 35.6695 0.5 35.6567 0.5C35.6439 0.5 35.6311 0.5 35.6184 0.5C35.6056 0.5 35.5928 0.5 35.5801 0.5C35.5673 0.5 35.5546 0.5 35.5418 0.5C35.5291 0.5 35.5163 0.5 35.5036 0.5C35.4909 0.5 35.4781 0.5 35.4654 0.5C35.4527 0.5 35.44 0.5 35.4272 0.5C35.4145 0.5 35.4018 0.5 35.3891 0.5C35.3764 0.5 35.3637 0.5 35.3511 0.5C35.3384 0.5 35.3257 0.5 35.313 0.5C35.3003 0.5 35.2877 0.5 35.275 0.5C35.2623 0.5 35.2497 0.5 35.237 0.5C35.2244 0.5 35.2117 0.5 35.1991 0.5C35.1865 0.5 35.1738 0.5 35.1612 0.5C35.1486 0.5 35.136 0.5 35.1234 0.5C35.1107 0.5 35.0981 0.5 35.0855 0.5C35.0729 0.5 35.0603 0.5 35.0478 0.5C35.0352 0.5 35.0226 0.5 35.01 0.5C34.9975 0.5 34.9849 0.5 34.9723 0.5C34.9598 0.5 34.9472 0.5 34.9347 0.5C34.9221 0.5 34.9096 0.5 34.8971 0.5C34.8845 0.5 34.872 0.5 34.8595 0.5C34.847 0.5 34.8345 0.5 34.822 0.5C34.8095 0.5 34.797 0.5 34.7845 0.5C34.772 0.5 34.7595 0.5 34.747 0.5C34.7346 0.5 34.7221 0.5 34.7096 0.5C34.6972 0.5 34.6847 0.5 34.6723 0.5C34.6598 0.5 34.6474 0.5 34.635 0.5C34.6225 0.5 34.6101 0.5 34.5977 0.5C34.5853 0.5 34.5729 0.5 34.5605 0.5C34.5481 0.5 34.5357 0.5 34.5233 0.5C34.5109 0.5 34.4985 0.5 34.4862 0.5C34.4738 0.5 34.4614 0.5 34.4491 0.5C34.4367 0.5 34.4244 0.5 34.412 0.5C34.3997 0.5 34.3874 0.5 34.3751 0.5C34.3627 0.5 34.3504 0.5 34.3381 0.5C34.3258 0.5 34.3135 0.5 34.3012 0.5C34.2889 0.5 34.2767 0.5 34.2644 0.5C34.2521 0.5 34.2398 0.5 34.2276 0.5C34.2153 0.5 34.2031 0.5 34.1908 0.5C34.1786 0.5 34.1664 0.5 34.1541 0.5C34.1419 0.5 34.1297 0.5 34.1175 0.5C34.1053 0.5 34.0931 0.5 34.0809 0.5C34.0687 0.5 34.0565 0.5 34.0444 0.5C34.0322 0.5 34.02 0.5 34.0079 0.5C33.9957 0.5 33.9836 0.5 33.9714 0.5C33.9593 0.5 33.9472 0.5 33.9351 0.5C33.9229 0.5 33.9108 0.5 33.8987 0.5C33.8866 0.5 33.8745 0.5 33.8624 0.5C33.8504 0.5 33.8383 0.5 33.8262 0.5C33.8142 0.5 33.8021 0.5 33.7901 0.5C33.778 0.5 33.766 0.5 33.7539 0.5C33.7419 0.5 33.7299 0.5 33.7179 0.5C33.7059 0.5 33.6939 0.5 33.6819 0.5C33.6699 0.5 33.6579 0.5 33.6459 0.5C33.6339 0.5 33.622 0.5 33.61 0.5C33.5981 0.5 33.5861 0.5 33.5742 0.5C33.5623 0.5 33.5503 0.5 33.5384 0.5C33.5265 0.5 33.5146 0.5 33.5027 0.5C33.4908 0.5 33.4789 0.5 33.467 0.5C33.4552 0.5 33.4433 0.5 33.4314 0.5C33.4196 0.5 33.4077 0.5 33.3959 0.5C33.3841 0.5 33.3722 0.5 33.3604 0.5C33.3486 0.5 33.3368 0.5 33.325 0.5C33.3132 0.5 33.3014 0.5 33.2896 0.5C33.2779 0.5 33.2661 0.5 33.2543 0.5C33.2426 0.5 33.2308 0.5 33.2191 0.5C33.2074 0.5 33.1956 0.5 33.1839 0.5C33.1722 0.5 33.1605 0.5 33.1488 0.5C33.1371 0.5 33.1254 0.5 33.1138 0.5C33.1021 0.5 33.0904 0.5 33.0788 0.5C33.0671 0.5 33.0555 0.5 33.0438 0.5C33.0322 0.5 33.0206 0.5 33.009 0.5C32.9974 0.5 32.9858 0.5 32.9742 0.5C32.9626 0.5 32.951 0.5 32.9395 0.5C32.9279 0.5 32.9163 0.5 32.9048 0.5C32.8932 0.5 32.8817 0.5 32.8702 0.5C32.8587 0.5 32.8472 0.5 32.8357 0.5C32.8242 0.5 32.8127 0.5 32.8012 0.5C32.7897 0.5 32.7782 0.5 32.7668 0.5C32.7553 0.5 32.7439 0.5 32.7325 0.5C32.721 0.5 32.7096 0.5 32.6982 0.5C32.6868 0.5 32.6754 0.5 32.664 0.5C32.6526 0.5 32.6412 0.5 32.6299 0.5C32.6185 0.5 32.6072 0.5 32.5958 0.5C32.5845 0.5 32.5731 0.5 32.5618 0.5C32.5505 0.5 32.5392 0.5 32.5279 0.5C32.5166 0.5 32.5053 0.5 32.4941 0.5C32.4828 0.5 32.4715 0.5 32.4603 0.5C32.449 0.5 32.4378 0.5 32.4266 0.5C32.4154 0.5 32.4042 0.5 32.393 0.5C32.3818 0.5 32.3706 0.5 32.3594 0.5C32.3482 0.5 32.3371 0.5 32.3259 0.5C32.3148 0.5 32.3036 0.5 32.2925 0.5C32.2814 0.5 32.2703 0.5 32.2592 0.5C32.2481 0.5 32.237 0.5 32.2259 0.5C32.2148 0.5 32.2037 0.5 32.1927 0.5C32.1816 0.5 32.1706 0.5 32.1596 0.5C32.1486 0.5 32.1375 0.5 32.1265 0.5C32.1155 0.5 32.1046 0.5 32.0936 0.5C32.0826 0.5 32.0716 0.5 32.0607 0.5C32.0497 0.5 32.0388 0.5 32.0279 0.5C32.017 0.5 32.006 0.5 31.9951 0.5C31.9842 0.5 31.9734 0.5 31.9625 0.5C31.9516 0.5 31.9408 0.5 31.9299 0.5C31.9191 0.5 31.9082 0.5 31.8974 0.5C31.8866 0.5 31.8758 0.5 31.865 0.5C31.8542 0.5 31.8434 0.5 31.8326 0.5C31.8219 0.5 31.8111 0.5 31.8004 0.5C31.7896 0.5 31.7789 0.5 31.7682 0.5C31.7575 0.5 31.7468 0.5 31.7361 0.5C31.7254 0.5 31.7147 0.5 31.7041 0.5C31.6934 0.5 31.6828 0.5 31.6722 0.5C31.6615 0.5 31.6509 0.5 31.6403 0.5C31.6297 0.5 31.6191 0.5 31.6085 0.5C31.5979 0.5 31.5874 0.5 31.5768 0.5C31.5663 0.5 31.5557 0.5 31.5452 0.5C31.5347 0.5 31.5242 0.5 31.5137 0.5C31.5032 0.5 31.4927 0.5 31.4823 0.5C31.4718 0.5 31.4614 0.5 31.4509 0.5C31.4405 0.5 31.4301 0.5 31.4196 0.5C31.4092 0.5 31.3988 0.5 31.3885 0.5C31.3781 0.5 31.3677 0.5 31.3574 0.5C31.347 0.5 31.3367 0.5 31.3264 0.5C31.316 0.5 31.3057 0.5 31.2954 0.5C31.2851 0.5 31.2749 0.5 31.2646 0.5C31.2543 0.5 31.2441 0.5 31.2338 0.5C31.2236 0.5 31.2134 0.5 31.2032 0.5C31.193 0.5 31.1828 0.5 31.1726 0.5C31.1624 0.5 31.1523 0.5 31.1421 0.5C31.132 0.5 31.1219 0.5 31.1117 0.5C31.1016 0.5 31.0915 0.5 31.0814 0.5C31.0714 0.5 31.0613 0.5 31.0512 0.5C31.0412 0.5 31.0311 0.5 31.0211 0.5C31.0111 0.5 31.0011 0.5 30.9911 0.5C30.9811 0.5 30.9711 0.5 30.9611 0.5C30.9512 0.5 30.9412 0.5 30.9313 0.5C30.9214 0.5 30.9114 0.5 30.9015 0.5C30.8916 0.5 30.8817 0.5 30.8719 0.5C30.862 0.5 30.8521 0.5 30.8423 0.5C30.8325 0.5 30.8226 0.5 30.8128 0.5C30.803 0.5 30.7932 0.5 30.7835 0.5C30.7737 0.5 30.7639 0.5 30.7542 0.5C30.7444 0.5 30.7347 0.5 30.725 0.5C30.7153 0.5 30.7056 0.5 30.6959 0.5C30.6862 0.5 30.6765 0.5 30.6669 0.5C30.6572 0.5 30.6476 0.5 30.638 0.5C30.6284 0.5 30.6188 0.5 30.6092 0.5C30.5996 0.5 30.59 0.5 30.5805 0.5C30.5709 0.5 30.5614 0.5 30.5519 0.5C30.5424 0.5 30.5328 0.5 30.5234 0.5C30.5139 0.5 30.5044 0.5 30.4949 0.5C30.4855 0.5 30.4761 0.5 30.4666 0.5C30.4572 0.5 30.4478 0.5 30.4384 0.5C30.429 0.5 30.4197 0.5 30.4103 0.5C30.401 0.5 30.3916 0.5 30.3823 0.5C30.373 0.5 30.3637 0.5 30.3544 0.5C30.3451 0.5 30.3358 0.5 30.3266 0.5C30.3173 0.5 30.3081 0.5 30.2989 0.5C30.2896 0.5 30.2804 0.5 30.2713 0.5C30.2621 0.5 30.2529 0.5 30.2438 0.5C30.2346 0.5 30.2255 0.5 30.2164 0.5C30.2072 0.5 30.1981 0.5 30.1891 0.5C30.18 0.5 30.1709 0.5 30.1619 0.5C30.1528 0.5 30.1438 0.5 30.1348 0.5C30.1258 0.5 30.1168 0.5 30.1078 0.5C30.0988 0.5 30.0899 0.5 30.0809 0.5C30.072 0.5 30.063 0.5 30.0541 0.5C30.0452 0.5 30.0363 0.5 30.0275 0.5C30.0186 0.5 30.0098 0.5 30.0009 0.5C29.9921 0.5 29.9833 0.5 29.9745 0.5C29.9657 0.5 29.9569 0.5 29.9481 0.5C29.9394 0.5 29.9306 0.5 29.9219 0.5C29.9132 0.5 29.9044 0.5 29.8958 0.5C29.8871 0.5 29.8784 0.5 29.8697 0.5C29.8611 0.5 29.8524 0.5 29.8438 0.5C29.8352 0.5 29.8266 0.5 29.818 0.5C29.8094 0.5 29.8009 0.5 29.7923 0.5C29.7838 0.5 29.7753 0.5 29.7667 0.5C29.7582 0.5 29.7497 0.5 29.7413 0.5C29.7328 0.5 29.7244 0.5 29.7159 0.5C29.7075 0.5 29.6991 0.5 29.6907 0.5C29.6823 0.5 29.6739 0.5 29.6655 0.5C29.6572 0.5 29.6488 0.5 29.6405 0.5C29.6322 0.5 29.6239 0.5 29.6156 0.5C29.6073 0.5 29.5991 0.5 29.5908 0.5C29.5826 0.5 29.5743 0.5 29.5661 0.5C29.5579 0.5 29.5497 0.5 29.5416 0.5C29.5334 0.5 29.5252 0.5 29.5171 0.5C29.509 0.5 29.5009 0.5 29.4928 0.5C29.4847 0.5 29.4766 0.5 29.4686 0.5C29.4605 0.5 29.4525 0.5 29.4445 0.5C29.4364 0.5 29.4284 0.5 29.4205 0.5C29.4125 0.5 29.4045 0.5 29.3966 0.5C29.3887 0.5 29.3807 0.5 29.3728 0.5C29.3649 0.5 29.3571 0.5 29.3492 0.5C29.3414 0.5 29.3335 0.5 29.3257 0.5C29.3179 0.5 29.3101 0.5 29.3023 0.5C29.2945 0.5 29.2868 0.5 29.279 0.5C29.2713 0.5 29.2636 0.5 29.2559 0.5C29.2482 0.5 29.2405 0.5 29.2328 0.5C29.2252 0.5 29.2175 0.5 29.2099 0.5C29.2023 0.5 29.1947 0.5 29.1871 0.5C29.1795 0.5 29.172 0.5 29.1644 0.5C29.1569 0.5 29.1494 0.5 29.1419 0.5C29.1344 0.5 29.1269 0.5 29.1195 0.5C29.112 0.5 29.1046 0.5 29.0971 0.5C29.0897 0.5 29.0823 0.5 29.075 0.5C29.0676 0.5 29.0602 0.5 29.0529 0.5C29.0456 0.5 29.0383 0.5 29.031 0.5C29.0237 0.5 29.0164 0.5 29.0091 0.5C29.0019 0.5 28.9947 0.5 28.9875 0.5C28.9803 0.5 28.9731 0.5 28.9659 0.5C28.9587 0.5 28.9516 0.5 28.9445 0.5C28.9373 0.5 28.9302 0.5 28.9232 0.5C28.9161 0.5 28.909 0.5 28.902 0.5C28.8949 0.5 28.8879 0.5 28.8809 0.5C28.8739 0.5 28.8669 0.5 28.86 0.5C28.853 0.5 28.8461 0.5 28.8392 0.5C28.8323 0.5 28.8254 0.5 28.8185 0.5C28.8117 0.5 28.8048 0.5 28.798 0.5C28.7912 0.5 28.7843 0.5 28.7776 0.5C28.7708 0.5 28.764 0.5 28.7573 0.5C28.7505 0.5 28.7438 0.5 28.7371 0.5C28.7304 0.5 28.7238 0.5 28.7171 0.5C28.7105 0.5 28.7038 0.5 28.6972 0.5C28.6906 0.5 28.684 0.5 28.6775 0.5C28.6709 0.5 28.6643 0.5 28.6578 0.5C28.6513 0.5 28.6448 0.5 28.6383 0.5C28.6319 0.5 28.6254 0.5 28.619 0.5C28.6125 0.5 28.6061 0.5 28.5997 0.5C28.5934 0.5 28.587 0.5 28.5806 0.5C28.5743 0.5 28.568 0.5 28.5617 0.5C28.5554 0.5 28.5491 0.5 28.5429 0.5C28.5366 0.5 28.5304 0.5 28.5242 0.5C28.518 0.5 28.5118 0.5 28.5056 0.5C28.4995 0.5 28.4933 0.5 28.4872 0.5C28.4811 0.5 28.475 0.5 28.4689 0.5C28.4628 0.5 28.4568 0.5 28.4508 0.5C28.4447 0.5 28.4387 0.5 28.4328 0.5C28.4268 0.5 28.4208 0.5 28.4149 0.5C28.409 0.5 28.403 0.5 28.3972 0.5C28.3913 0.5 28.3854 0.5 28.3796 0.5C28.3737 0.5 28.3679 0.5 28.3621 0.5C28.3563 0.5 28.3505 0.5 28.3448 0.5C28.339 0.5 28.3333 0.5 28.3276 0.5C28.3219 0.5 28.3162 0.5 28.3106 0.5C28.3049 0.5 28.2993 0.5 28.2937 0.5C28.2881 0.5 28.2825 0.5 28.2769 0.5C28.2714 0.5 28.2658 0.5 28.2603 0.5C28.2548 0.5 28.2493 0.5 28.2438 0.5C28.2384 0.5 28.2329 0.5 28.2275 0.5C28.2221 0.5 28.2167 0.5 28.2113 0.5C28.206 0.5 28.2006 0.5 28.1953 0.5C28.19 0.5 28.1847 0.5 28.1794 0.5C28.1741 0.5 28.1689 0.5 28.1636 0.5C28.1584 0.5 28.1532 0.5 28.148 0.5C28.1429 0.5 28.1377 0.5 28.1326 0.5C28.1274 0.5 28.1223 0.5 28.1172 0.5C28.1122 0.5 28.1071 0.5 28.1021 0.5C28.097 0.5 28.092 0.5 28.0871 0.5C28.0821 0.5 28.0771 0.5 28.0722 0.5C28.0672 0.5 28.0623 0.5 28.0574 0.5C28.0526 0.5 28.0477 0.5 28.0429 0.5C28.038 0.5 28.0332 0.5 28.0284 0.5C28.0236 0.5 28.0189 0.5 28.0141 0.5C28.0094 0.5 28.0047 0.5 28 0.5V1.5Z" fill="#00A7AC"/>
</svg>
