<svg width="155" height="54" viewBox="0 0 155 54" fill="none" xmlns="http://www.w3.org/2000/svg">
<path d="M22.81 53.492C22.762 53.504 22.72 53.474 22.684 53.402C22.648 53.342 22.648 53.3 22.684 53.276C23.212 52.952 23.59 52.46 23.818 51.8C24.046 51.152 24.154 50.312 24.142 49.28V40.208C24.142 39.848 24.106 39.584 24.034 39.416C23.962 39.248 23.83 39.134 23.638 39.074C23.446 39.002 23.152 38.966 22.756 38.966C22.72 38.966 22.702 38.93 22.702 38.858C22.702 38.786 22.72 38.75 22.756 38.75L23.62 38.768C24.1 38.792 24.496 38.804 24.808 38.804C25.156 38.804 25.594 38.792 26.122 38.768L26.932 38.75C26.968 38.75 26.986 38.786 26.986 38.858C26.986 38.93 26.968 38.966 26.932 38.966C26.536 38.966 26.242 39.002 26.05 39.074C25.858 39.146 25.726 39.272 25.654 39.452C25.594 39.62 25.558 39.884 25.546 40.244V48.794C25.546 49.73 25.456 50.486 25.276 51.062C25.096 51.65 24.814 52.13 24.43 52.502C24.046 52.874 23.506 53.204 22.81 53.492ZM31.0333 50.252C30.3853 50.252 29.8213 50.096 29.3413 49.784C28.8733 49.472 28.5133 49.046 28.2613 48.506C28.0093 47.966 27.8833 47.366 27.8833 46.706C27.8833 45.962 28.0333 45.296 28.3333 44.708C28.6453 44.12 29.0713 43.658 29.6113 43.322C30.1513 42.986 30.7633 42.818 31.4473 42.818C32.4073 42.818 33.1753 43.136 33.7513 43.772C34.3273 44.396 34.6153 45.242 34.6153 46.31C34.6153 47.126 34.4473 47.834 34.1113 48.434C33.7873 49.022 33.3493 49.472 32.7973 49.784C32.2573 50.096 31.6693 50.252 31.0333 50.252ZM31.5913 49.802C32.1313 49.802 32.5633 49.562 32.8873 49.082C33.2233 48.59 33.3913 47.924 33.3913 47.084C33.3913 46.424 33.2833 45.8 33.0673 45.212C32.8513 44.624 32.5573 44.15 32.1853 43.79C31.8133 43.43 31.3933 43.25 30.9253 43.25C30.3973 43.25 29.9593 43.484 29.6113 43.952C29.2753 44.408 29.1073 45.056 29.1073 45.896C29.1073 46.556 29.2153 47.186 29.4313 47.786C29.6473 48.386 29.9413 48.872 30.3133 49.244C30.6973 49.616 31.1233 49.802 31.5913 49.802ZM41.0177 42.818C41.6297 42.818 42.1217 43.07 42.4937 43.574C42.8777 44.066 43.0697 44.702 43.0697 45.482C43.0697 46.454 42.8357 47.3 42.3677 48.02C41.9117 48.74 41.3417 49.292 40.6577 49.676C39.9737 50.048 39.3137 50.234 38.6777 50.234C37.9577 50.234 37.3817 50.084 36.9497 49.784C36.5297 49.484 36.3257 49.076 36.3377 48.56L36.4457 39.02C36.4697 38.408 36.2777 38.102 35.8697 38.102C35.6417 38.102 35.3477 38.192 34.9877 38.372H34.9697C34.9097 38.372 34.8737 38.342 34.8617 38.282C34.8377 38.21 34.8497 38.168 34.8977 38.156L37.3817 36.95H37.4177C37.4657 36.95 37.5137 36.968 37.5617 37.004C37.6097 37.04 37.6337 37.07 37.6337 37.094L37.5977 46.004C37.8617 45.056 38.2997 44.288 38.9117 43.7C39.5357 43.112 40.2377 42.818 41.0177 42.818ZM39.3617 49.766C39.7817 49.766 40.1717 49.616 40.5317 49.316C40.8917 49.016 41.1797 48.584 41.3957 48.02C41.6117 47.456 41.7137 46.796 41.7017 46.04C41.7137 45.356 41.5997 44.804 41.3597 44.384C41.1317 43.964 40.7717 43.754 40.2797 43.754C39.7637 43.754 39.3017 43.94 38.8937 44.312C38.4977 44.684 38.1797 45.212 37.9397 45.896C37.7117 46.568 37.5977 47.342 37.5977 48.218V48.272C37.5977 48.704 37.7657 49.064 38.1017 49.352C38.4377 49.628 38.8577 49.766 39.3617 49.766ZM48.6143 50C48.5783 50 48.5543 49.964 48.5423 49.892C48.5423 49.82 48.5663 49.784 48.6143 49.784C49.0223 49.784 49.3163 49.754 49.4963 49.694C49.6883 49.634 49.8203 49.52 49.8923 49.352C49.9643 49.172 50.0003 48.902 50.0003 48.542V40.208C49.9883 39.848 49.9463 39.584 49.8743 39.416C49.8023 39.248 49.6703 39.134 49.4783 39.074C49.2983 39.002 49.0103 38.966 48.6143 38.966C48.5783 38.966 48.5543 38.93 48.5423 38.858C48.5423 38.786 48.5663 38.75 48.6143 38.75L49.4423 38.768C49.9223 38.792 50.3183 38.804 50.6303 38.804C50.9063 38.804 51.1403 38.798 51.3323 38.786C51.5363 38.774 51.7043 38.762 51.8363 38.75C52.2563 38.714 52.6583 38.696 53.0423 38.696C54.2063 38.696 55.1663 38.948 55.9223 39.452C56.6783 39.956 57.0563 40.694 57.0563 41.666C57.0563 42.458 56.8403 43.13 56.4083 43.682C55.9763 44.222 55.4363 44.624 54.7883 44.888C54.1403 45.152 53.4923 45.284 52.8443 45.284C52.4843 45.284 52.2023 45.254 51.9983 45.194C51.9743 45.194 51.9623 45.158 51.9623 45.086C51.9623 45.05 51.9683 45.008 51.9803 44.96C52.0043 44.912 52.0283 44.894 52.0523 44.906C52.2083 44.954 52.4003 44.978 52.6283 44.978C53.4203 44.978 54.0923 44.726 54.6443 44.222C55.2083 43.718 55.4903 42.986 55.4903 42.026C55.4903 41.414 55.3583 40.88 55.0943 40.424C54.8303 39.956 54.4823 39.602 54.0503 39.362C53.6303 39.122 53.1803 39.002 52.7003 39.002C52.3163 39.002 52.0343 39.032 51.8543 39.092C51.6863 39.14 51.5663 39.248 51.4943 39.416C51.4343 39.584 51.3983 39.86 51.3863 40.244L51.4043 48.542C51.4043 48.902 51.4343 49.172 51.4943 49.352C51.5663 49.52 51.6923 49.634 51.8723 49.694C52.0643 49.754 52.3583 49.784 52.7543 49.784C52.7903 49.784 52.8083 49.82 52.8083 49.892C52.8083 49.964 52.7903 50 52.7543 50C52.3943 50 52.1123 49.994 51.9083 49.982L50.6663 49.964L49.4603 49.982C49.2563 49.994 48.9743 50 48.6143 50ZM61.004 50.252C60.356 50.252 59.792 50.096 59.312 49.784C58.844 49.472 58.484 49.046 58.232 48.506C57.98 47.966 57.854 47.366 57.854 46.706C57.854 45.962 58.004 45.296 58.304 44.708C58.616 44.12 59.042 43.658 59.582 43.322C60.122 42.986 60.734 42.818 61.418 42.818C62.378 42.818 63.146 43.136 63.722 43.772C64.298 44.396 64.586 45.242 64.586 46.31C64.586 47.126 64.418 47.834 64.082 48.434C63.758 49.022 63.32 49.472 62.768 49.784C62.228 50.096 61.64 50.252 61.004 50.252ZM61.562 49.802C62.102 49.802 62.534 49.562 62.858 49.082C63.194 48.59 63.362 47.924 63.362 47.084C63.362 46.424 63.254 45.8 63.038 45.212C62.822 44.624 62.528 44.15 62.156 43.79C61.784 43.43 61.364 43.25 60.896 43.25C60.368 43.25 59.93 43.484 59.582 43.952C59.246 44.408 59.078 45.056 59.078 45.896C59.078 46.556 59.186 47.186 59.402 47.786C59.618 48.386 59.912 48.872 60.284 49.244C60.668 49.616 61.094 49.802 61.562 49.802ZM70.0164 42.872C70.3044 42.872 70.5804 42.962 70.8444 43.142C71.1204 43.322 71.2644 43.526 71.2764 43.754C71.2764 43.934 71.2044 44.102 71.0604 44.258C70.9164 44.414 70.7544 44.492 70.5744 44.492C70.4424 44.492 70.3344 44.474 70.2504 44.438C70.1784 44.39 70.0824 44.318 69.9624 44.222C69.8064 44.09 69.6624 44.024 69.5304 44.024C69.2664 44.024 69.0144 44.354 68.7744 45.014C68.5344 45.674 68.3364 46.466 68.1804 47.39C68.0244 48.314 67.9404 49.13 67.9284 49.838C67.9284 49.934 67.8684 50.006 67.7484 50.054C67.6284 50.114 67.4484 50.144 67.2084 50.144C66.9684 50.144 66.8184 50.126 66.7584 50.09C66.7104 50.066 66.6864 50.018 66.6864 49.946C66.6864 49.802 66.6924 49.676 66.7044 49.568L66.7224 48.668L66.7404 45.122C66.7524 44.138 66.5484 43.646 66.1284 43.646C65.9604 43.646 65.7804 43.706 65.5884 43.826C65.4084 43.946 65.2284 44.114 65.0484 44.33C65.0364 44.342 65.0184 44.348 64.9944 44.348C64.9584 44.348 64.9284 44.33 64.9044 44.294C64.8684 44.258 64.8564 44.222 64.8684 44.186C65.1924 43.766 65.5284 43.448 65.8764 43.232C66.2244 43.004 66.5604 42.89 66.8844 42.89C67.2564 42.89 67.5264 43.046 67.6944 43.358C67.8744 43.658 67.9644 44.216 67.9644 45.032L67.9464 47.066C68.1264 45.854 68.3904 44.852 68.7384 44.06C69.0864 43.268 69.5124 42.872 70.0164 42.872ZM77.6874 43.07C77.7354 43.07 77.7714 43.088 77.7954 43.124C77.8314 43.16 77.8494 43.196 77.8494 43.232C77.8374 43.388 77.7594 43.562 77.6154 43.754C77.4834 43.946 77.3454 44.03 77.2014 44.006L76.8234 43.952C75.7914 43.796 74.9514 43.706 74.3034 43.682L74.2854 48.092C74.2854 48.56 74.3814 48.902 74.5734 49.118C74.7654 49.334 75.0714 49.442 75.4914 49.442C76.0194 49.442 76.5414 49.238 77.0574 48.83H77.0754C77.1234 48.83 77.1654 48.854 77.2014 48.902C77.2374 48.938 77.2374 48.962 77.2014 48.974C76.7574 49.418 76.3374 49.736 75.9414 49.928C75.5454 50.12 75.1434 50.216 74.7354 50.216C74.2434 50.216 73.8354 50.09 73.5114 49.838C73.1994 49.586 73.0494 49.16 73.0614 48.56L73.0794 44.492C73.0794 44.192 73.0554 43.982 73.0074 43.862C72.9714 43.73 72.8934 43.64 72.7734 43.592C72.6534 43.544 72.4554 43.52 72.1794 43.52C72.1434 43.52 72.1254 43.478 72.1254 43.394C72.1254 43.31 72.1374 43.268 72.1614 43.268C72.6654 43.268 73.0674 43.136 73.3674 42.872C73.6794 42.596 73.8774 42.248 73.9614 41.828C73.9614 41.792 74.0094 41.774 74.1054 41.774C74.1534 41.774 74.1954 41.786 74.2314 41.81C74.2794 41.822 74.3034 41.834 74.3034 41.846V43.232C74.4954 43.232 75.3174 43.196 76.7694 43.124L77.6874 43.07ZM85.6725 48.614C85.6845 48.602 85.7025 48.596 85.7265 48.596C85.7625 48.596 85.7985 48.62 85.8345 48.668C85.8705 48.704 85.8825 48.734 85.8705 48.758C85.5225 49.226 85.1985 49.58 84.8985 49.82C84.5985 50.048 84.2925 50.162 83.9805 50.162C83.2485 50.162 82.8885 49.652 82.9005 48.632L82.9185 46.724C82.5585 47.792 82.0605 48.644 81.4245 49.28C80.8005 49.916 80.1345 50.234 79.4265 50.234C78.9585 50.234 78.5805 50.072 78.2925 49.748C78.0045 49.424 77.8605 48.92 77.8605 48.236C77.8605 47.408 78.0645 46.574 78.4725 45.734C78.8925 44.894 79.4265 44.198 80.0745 43.646C80.7345 43.094 81.4065 42.818 82.0905 42.818C82.3425 42.818 82.5945 42.86 82.8465 42.944C83.1105 43.016 83.3385 43.136 83.5305 43.304C83.7225 43.136 83.8545 42.932 83.9265 42.692C83.9265 42.668 83.9565 42.656 84.0165 42.656C84.1365 42.656 84.1845 42.674 84.1605 42.71L84.1245 48.398C84.1125 49.058 84.2685 49.388 84.5925 49.388C84.8805 49.388 85.2405 49.13 85.6725 48.614ZM82.8645 45.05C82.8645 44.594 82.7385 44.228 82.4865 43.952C82.2345 43.676 81.9045 43.538 81.4965 43.538C81.0405 43.538 80.6205 43.7 80.2365 44.024C79.8645 44.336 79.5705 44.78 79.3545 45.356C79.1385 45.92 79.0305 46.562 79.0305 47.282C79.0425 48.566 79.4145 49.208 80.1465 49.208C80.6145 49.208 81.0585 48.986 81.4785 48.542C81.8985 48.086 82.2345 47.534 82.4865 46.886C82.7385 46.226 82.8645 45.614 82.8645 45.05ZM88.152 50.162C87.408 50.162 87.048 49.652 87.072 48.632L87.162 39.02C87.186 38.408 87.006 38.102 86.622 38.102C86.418 38.102 86.124 38.192 85.74 38.372H85.722C85.674 38.372 85.638 38.342 85.614 38.282C85.59 38.222 85.602 38.18 85.65 38.156L88.134 36.95H88.17C88.218 36.95 88.26 36.968 88.296 37.004C88.344 37.04 88.368 37.07 88.368 37.094L88.314 48.398C88.302 49.058 88.464 49.388 88.8 49.388C89.052 49.388 89.406 49.13 89.862 48.614C89.874 48.602 89.892 48.596 89.916 48.596C89.964 48.596 90.006 48.62 90.042 48.668C90.09 48.704 90.102 48.734 90.078 48.758C89.706 49.238 89.376 49.592 89.088 49.82C88.8 50.048 88.488 50.162 88.152 50.162Z" fill="black"/>
<path d="M10.1646 49.2463L10.9472 48.4134" stroke="#00A7AC" stroke-width="0.5" stroke-miterlimit="10" stroke-linecap="round" stroke-linejoin="round"/>
<path d="M10.2602 47.6825L9.47754 48.5154" stroke="#00A7AC" stroke-width="0.5" stroke-miterlimit="10" stroke-linecap="round" stroke-linejoin="round"/>
<path d="M10.4932 50.6023H14.3071C15.0979 50.6023 15.739 49.92 15.739 49.0784V48.2318" stroke="#00A7AC" stroke-width="0.5" stroke-miterlimit="10" stroke-linecap="round" stroke-linejoin="round"/>
<path d="M15.7388 42.2522V41.1515C15.7388 40.3099 15.0977 39.6277 14.3069 39.6277H2.43189C1.64109 39.6277 1 40.3099 1 41.1515V49.0784C1 49.92 1.64109 50.6023 2.43189 50.6023H5.92555" stroke="#00A7AC" stroke-width="0.5" stroke-miterlimit="10" stroke-linecap="round" stroke-linejoin="round"/>
<path d="M1 42.2114C1 43.7364 2.16166 44.9727 3.59467 44.9727H3.62448" stroke="#00A7AC" stroke-width="0.5" stroke-miterlimit="10" stroke-linecap="round" stroke-linejoin="round"/>
<path d="M4.96289 44.9727H9.48921" stroke="#00A7AC" stroke-width="0.5" stroke-miterlimit="10" stroke-linecap="round" stroke-linejoin="round"/>
<path d="M8.18442 51.7637L10.1534 49.6682C10.2663 49.5481 10.2663 49.3534 10.1534 49.2333L9.48979 48.5271C9.37695 48.407 9.19403 48.407 9.08119 48.5271L7.1122 50.6226C6.81612 50.9377 6.81612 51.4486 7.1122 51.7637C7.40831 52.0788 7.88834 52.0788 8.18442 51.7637Z" stroke="#00A7AC" stroke-width="0.5" stroke-miterlimit="10" stroke-linecap="round" stroke-linejoin="round"/>
<path d="M8.64697 48.9892L9.7192 50.1303" stroke="#00A7AC" stroke-width="0.5" stroke-miterlimit="10" stroke-linecap="round" stroke-linejoin="round"/>
<path d="M15.8988 48.0714C14.4305 49.634 12.05 49.634 10.5817 48.0714C9.11339 46.5088 9.11339 43.9753 10.5817 42.4127C12.05 40.8501 14.4305 40.8501 15.8988 42.4127C17.3671 43.9753 17.3671 46.5088 15.8988 48.0714Z" stroke="#00A7AC" stroke-width="0.5" stroke-miterlimit="10" stroke-linecap="round" stroke-linejoin="round"/>
<path d="M15.8377 45.846C15.7331 46.3578 15.4939 46.8447 15.12 47.2427C14.0818 48.3476 12.3984 48.3476 11.3602 47.2427C10.322 46.1378 10.322 44.3463 11.3602 43.2414C12.3984 42.1364 14.0818 42.1364 15.12 43.2414C15.4936 43.6389 15.7327 44.1253 15.8374 44.6366" stroke="#00A7AC" stroke-width="0.5" stroke-miterlimit="10" stroke-linecap="round" stroke-linejoin="round"/>
<path d="M4.29365 46.869C3.9241 46.869 3.62451 46.5502 3.62451 46.1569V44.502C3.62451 44.1087 3.9241 43.7898 4.29365 43.7898C4.66319 43.7898 4.96278 44.1087 4.96278 44.502V46.1569C4.96278 46.5502 4.66319 46.869 4.29365 46.869Z" stroke="#00A7AC" stroke-width="0.5" stroke-miterlimit="10" stroke-linecap="round" stroke-linejoin="round"/>
<path d="M4.96278 45.624H3.62451" stroke="#00A7AC" stroke-width="0.5" stroke-miterlimit="10" stroke-linecap="round" stroke-linejoin="round"/>
<path d="M11.1301 39.6277V38.4758C11.1301 37.662 10.508 37 9.74338 37H6.99512C6.23047 37 5.6084 37.662 5.6084 38.4758V39.6277" stroke="#00A7AC" stroke-width="0.5" stroke-miterlimit="10" stroke-linecap="round" stroke-linejoin="round"/>
<path d="M6.60645 39.6277V38.4758C6.60645 38.2477 6.78084 38.0621 6.99518 38.0621H9.74344C9.95778 38.0621 10.1322 38.2477 10.1322 38.4758V39.6277" stroke="#00A7AC" stroke-width="0.5" stroke-miterlimit="10" stroke-linecap="round" stroke-linejoin="round"/>
<path d="M15.11 2.56V18.54C15.11 20.92 14.3847 22.6767 12.934 23.81C11.506 24.9433 9.57933 25.51 7.154 25.51C5.77133 25.51 4.45667 25.1473 3.21 24.422C1.96333 23.6967 1.34 22.8353 1.34 21.838C1.34 21.4527 1.46467 21.0107 1.714 20.512L3.754 16.568L4.978 16.942L4.672 19.05C4.58133 19.8433 4.536 20.5913 4.536 21.294C4.536 21.9967 4.774 22.6087 5.25 23.13C5.74867 23.6513 6.406 23.912 7.222 23.912C8.06067 23.912 8.72933 23.6287 9.228 23.062C9.74933 22.4953 10.01 21.6453 10.01 20.512V2.56H6.78V1.2H17.15V2.56H15.11ZM20.8953 13.134C20.8953 9.53 21.87 6.56067 23.8193 4.226C25.7913 1.86867 28.5906 0.689999 32.2173 0.689999C35.8666 0.689999 38.6773 1.85733 40.6493 4.192C42.6213 6.52667 43.6073 9.50733 43.6073 13.134C43.6073 16.738 42.6213 19.7073 40.6493 22.042C38.6773 24.354 35.8666 25.51 32.2173 25.51C28.5906 25.51 25.7913 24.354 23.8193 22.042C21.87 19.7073 20.8953 16.738 20.8953 13.134ZM32.2513 2.288C30.914 2.288 29.7806 2.80933 28.8513 3.852C27.0606 5.80133 26.1653 8.89533 26.1653 13.134C26.1653 17.35 27.0606 20.4213 28.8513 22.348C29.8033 23.3907 30.9366 23.912 32.2513 23.912C34.2006 23.912 35.6966 22.8693 36.7393 20.784C37.8046 18.6987 38.3373 16.1487 38.3373 13.134C38.3373 10.0967 37.8046 7.53533 36.7393 5.45C35.6966 3.342 34.2006 2.288 32.2513 2.288Z" fill="#00A7AC"/>
<path d="M47.673 2.56V1.2H55.833C62.9276 1.2 66.475 3.35333 66.475 7.66C66.475 10.652 64.7183 12.6013 61.205 13.508V13.746C65.3983 14.3807 67.495 16.1033 67.495 18.914C67.495 20.954 66.5656 22.484 64.707 23.504C62.8483 24.5013 60.2303 25 56.853 25H47.673V23.64H49.713V2.56H47.673ZM56.513 14.358H54.813V23.64H56.513C58.145 23.64 59.505 23.232 60.593 22.416C61.681 21.6 62.225 20.4667 62.225 19.016C62.225 17.5427 61.681 16.398 60.593 15.582C59.505 14.766 58.145 14.358 56.513 14.358ZM55.799 2.56H54.813V13.066H55.799C57.4083 13.066 58.7343 12.59 59.777 11.638C60.8423 10.686 61.375 9.38267 61.375 7.728C61.375 6.07333 60.8423 4.804 59.777 3.92C58.7343 3.01333 57.4083 2.56 55.799 2.56ZM87.0112 25H71.7452V23.64H73.7852V2.56H71.7452V1.2H86.3312C86.8299 1.2 87.1926 1.22267 87.4192 1.268C87.6686 1.29067 87.8952 1.41533 88.0992 1.642C88.3032 1.846 88.4052 2.17467 88.4052 2.628L87.4872 8.34H86.1612L85.4812 4.974C85.2772 3.954 84.8919 3.29667 84.3252 3.002C83.7812 2.70733 82.7612 2.56 81.2652 2.56H78.8852V14.188H86.7052V15.718H78.8852V23.64H81.9452C83.4186 23.64 84.4272 23.4927 84.9712 23.198C85.5379 22.9033 85.9346 22.246 86.1612 21.226L86.8412 18.2H88.1672L89.0852 23.572C89.0852 24.0253 88.9832 24.3653 88.7792 24.592C88.5752 24.796 88.3486 24.9207 88.0992 24.966C87.8726 24.9887 87.5099 25 87.0112 25ZM95.5073 20.614C95.5073 21.498 95.9379 22.2687 96.7993 22.926C97.6606 23.5833 98.7713 23.912 100.131 23.912C101.491 23.912 102.568 23.5833 103.361 22.926C104.155 22.2687 104.551 21.396 104.551 20.308C104.551 18.9253 103.724 17.7807 102.069 16.874L97.0373 14.188C94.1359 12.624 92.6853 10.3913 92.6853 7.49C92.6853 5.63133 93.3653 4.03333 94.7253 2.696C96.0853 1.35867 98.1139 0.689999 100.811 0.689999C102.625 0.689999 104.347 1.05267 105.979 1.778C107.611 2.50333 108.427 3.36467 108.427 4.362C108.427 4.74733 108.303 5.18933 108.053 5.688L106.421 8.816L105.231 8.442V5.586C105.231 4.566 104.778 3.76133 103.871 3.172C102.987 2.58267 101.922 2.288 100.675 2.288C99.4513 2.288 98.5106 2.65067 97.8533 3.376C97.1959 4.10133 96.8673 4.92867 96.8673 5.858C96.8673 7.71667 97.7059 9.088 99.3833 9.972L103.701 12.25C106.988 13.9727 108.631 16.2393 108.631 19.05C108.631 21.1807 107.827 22.79 106.217 23.878C104.631 24.966 102.613 25.51 100.165 25.51C98.3293 25.51 96.5613 25.1473 94.8613 24.422C93.1613 23.6967 92.3113 22.8353 92.3113 21.838C92.3113 21.4527 92.4359 21.0107 92.6853 20.512L94.3173 17.384L95.5073 17.758V20.614Z" fill="#061421"/>
</svg>
