<svg width="251" height="213" viewBox="0 0 251 213" fill="none" xmlns="http://www.w3.org/2000/svg">
<path d="M54.6129 119.674L54.6129 71.6737C54.6129 70.0169 55.956 68.6737 57.6129 68.6737L97.6129 68.6737" stroke="black" stroke-width="1.01212"/>
<path d="M194 120.191L194 72.1908C194 70.534 192.657 69.1908 191 69.1908L151 69.1908" stroke="black" stroke-width="1.01212" stroke-dasharray="4.02 4.02"/>
<circle cx="55.46" cy="146.46" r="25.96" fill="white" stroke="black"/>
<path d="M63.45 143C61.9284 143 60.6895 144.238 60.6895 145.761C60.6895 147.283 61.9284 148.521 63.45 148.521C64.9716 148.521 66.2106 147.283 66.2106 145.761C66.2106 144.238 64.9727 143 63.45 143ZM63.45 147.417C62.5368 147.417 61.7937 146.674 61.7937 145.761C61.7937 144.847 62.5368 144.104 63.45 144.104C64.3632 144.104 65.1063 144.847 65.1063 145.761C65.1063 146.674 64.3632 147.417 63.45 147.417Z" fill="black"/>
<path d="M55.1053 143C53.5837 143 52.3447 144.238 52.3447 145.761C52.3447 147.283 53.5837 148.521 55.1053 148.521C56.6269 148.521 57.8658 147.283 57.8658 145.761C57.8658 144.238 56.6269 143 55.1053 143ZM55.1053 147.417C54.1921 147.417 53.4489 146.674 53.4489 145.761C53.4489 144.847 54.1921 144.104 55.1053 144.104C56.0185 144.104 56.7616 144.847 56.7616 145.761C56.7616 146.674 56.0185 147.417 55.1053 147.417Z" fill="black"/>
<path d="M46.7606 143C45.2389 143 44 144.238 44 145.761C44 147.283 45.2389 148.521 46.7606 148.521C48.2822 148.521 49.5211 147.283 49.5211 145.761C49.5211 144.238 48.2822 143 46.7606 143ZM46.7606 147.417C45.8474 147.417 45.1042 146.674 45.1042 145.761C45.1042 144.847 45.8474 144.104 46.7606 144.104C47.6737 144.104 48.4169 144.847 48.4169 145.761C48.4169 146.674 47.6737 147.417 46.7606 147.417Z" fill="black"/>
<circle cx="124.46" cy="67.46" r="25.96" fill="#062427" stroke="#062427"/>
<path d="M135.472 59H133.389C129.222 59 126.028 61.3611 124.361 64.2778C122.694 61.2222 119.361 59 115.333 59H113.25C112.556 59 112 59.5556 112 60.25V62.3333C112 68.1666 116.722 72.75 122.417 72.75H123.25V77.75C123.25 78.4444 123.806 79 124.5 79C125.194 79 125.75 78.4444 125.75 77.75V72.75H126.583C132.278 72.75 137 68.1666 137 62.3333V60.25C136.722 59.5556 136.167 59 135.472 59ZM122.972 70.1111H122.139C117.833 70.1111 114.361 66.6389 114.361 62.3333V61.5H115.194C119.5 61.5 122.972 64.9722 122.972 69.2778V70.1111ZM134.222 62.3333C134.222 66.6389 130.75 70.1111 126.444 70.1111H125.611V69.2778C125.611 64.9722 129.083 61.5 133.389 61.5H134.222V62.3333Z" fill="white"/>
<rect x="187.229" y="131.879" width="33.4483" height="40.6207" rx="2.85651" fill="white" stroke="black"/>
<rect x="181.222" y="126.19" width="33.4483" height="40.6207" rx="2.85651" fill="white" stroke="black"/>
<rect x="175.768" y="120.5" width="33.4483" height="40.6207" rx="2.85651" fill="white" stroke="black"/>
<line x1="183.995" y1="130.241" x2="201.448" y2="130.241" stroke="black"/>
<line x1="183.994" y1="136.954" x2="201.448" y2="136.954" stroke="black"/>
<line x1="183.994" y1="143.667" x2="201.448" y2="143.667" stroke="black"/>
<line x1="183.994" y1="150.38" x2="201.448" y2="150.38" stroke="black"/>
</svg>
