<svg width="251" height="213" viewBox="0 0 251 213" fill="none" xmlns="http://www.w3.org/2000/svg">
<path d="M195.449 65.97C206.256 69.2014 215.54 76.2115 221.607 85.7207C227.674 95.2298 230.119 106.604 228.495 117.766C226.871 128.928 221.287 139.134 212.763 146.521C204.238 153.907 193.341 157.982 182.062 158C170.782 158.019 159.872 153.98 151.323 146.621C142.774 139.263 137.157 129.075 135.496 117.918C133.836 106.762 136.244 95.3797 142.279 85.8507C148.315 76.3217 157.576 69.2812 168.372 66.0144" stroke="black" stroke-dasharray="4 4"/>
<line x1="68" y1="110.5" x2="156" y2="110.5" stroke="black"/>
<circle cx="182.46" cy="110.46" r="25.96" fill="#062427" stroke="#062427"/>
<path d="M193.472 102H191.389C187.222 102 184.028 104.361 182.361 107.278C180.694 104.222 177.361 102 173.333 102H171.25C170.556 102 170 102.555 170 103.25V105.333C170 111.166 174.722 115.75 180.417 115.75H181.25V120.75C181.25 121.444 181.806 122 182.5 122C183.194 122 183.75 121.444 183.75 120.75V115.75H184.583C190.278 115.75 195 111.166 195 105.333V103.25C194.722 102.555 194.167 102 193.472 102ZM180.972 113.111H180.139C175.833 113.111 172.361 109.639 172.361 105.333V104.5H173.194C177.5 104.5 180.972 107.972 180.972 112.278V113.111ZM192.222 105.333C192.222 109.639 188.75 113.111 184.444 113.111H183.611V112.278C183.611 107.972 187.083 104.5 191.389 104.5H192.222V105.333Z" fill="white"/>
<path d="M187.96 61H186V57.95C186 55.77 184.21 54 182 54C179.79 54 178 55.77 178 57.95V61H175.96C175.41 61 175 61.35 175 61.9V68.81C175 69.35 175.41 70 175.96 70H187.96C188.51 70 189 69.35 189 68.81V61.9C189 61.35 188.51 61 187.96 61ZM180 61V57.95C180 56.86 180.9 55.98 182 55.98C183.1 55.98 184 56.86 184 57.95V61H180Z" fill="black"/>
<rect x="33.9611" y="95.8794" width="33.4483" height="40.6207" rx="2.85651" fill="white" stroke="black"/>
<rect x="27.9547" y="90.1897" width="33.4483" height="40.6207" rx="2.85651" fill="white" stroke="black"/>
<rect x="22.5" y="84.5" width="33.4483" height="40.6207" rx="2.85651" fill="white" stroke="black"/>
<line x1="30.7269" y1="94.2407" x2="48.1808" y2="94.2407" stroke="black"/>
<line x1="30.7268" y1="100.954" x2="48.1806" y2="100.954" stroke="black"/>
<line x1="30.7268" y1="107.667" x2="48.1806" y2="107.667" stroke="black"/>
<line x1="30.7268" y1="114.38" x2="48.1806" y2="114.38" stroke="black"/>
</svg>
